<?xml version="1.0" encoding="UTF-8"?>
<!DOCTYPE svg PUBLIC "-//W3C//DTD SVG 1.1//EN" "http://www.w3.org/Graphics/SVG/1.1/DTD/svg11.dtd">
<svg xmlns="http://www.w3.org/2000/svg" version="1.1" width="1536px" height="2458px" style="shape-rendering:geometricPrecision; text-rendering:geometricPrecision; image-rendering:optimizeQuality; fill-rule:evenodd; clip-rule:evenodd" xmlns:xlink="http://www.w3.org/1999/xlink">
<g><path style="opacity:1" fill="#fcfdfb" d="M -0.5,-0.5 C 511.5,-0.5 1023.5,-0.5 1535.5,-0.5C 1535.5,818.833 1535.5,1638.17 1535.5,2457.5C 1023.5,2457.5 511.5,2457.5 -0.5,2457.5C -0.5,1638.17 -0.5,818.833 -0.5,-0.5 Z"/></g>
<g><path style="opacity:1" fill="#090a07" d="M 766.5,673.5 C 765.957,673.56 765.624,673.893 765.5,674.5C 804.828,675.5 844.161,675.833 883.5,675.5C 883.5,680.5 883.5,685.5 883.5,690.5C 841.499,690.333 799.499,690.5 757.5,691C 756.177,691.816 755.511,692.983 755.5,694.5C 754.833,694.5 754.5,694.833 754.5,695.5C 752.937,696.945 751.604,698.611 750.5,700.5C 744.855,706.48 739.188,712.48 733.5,718.5C 729.558,716.062 726.058,713.062 723,709.5C 722.685,708.092 723.018,706.759 724,705.5C 737.019,692.63 747.186,677.797 754.5,661C 759.336,662.285 764.336,663.118 769.5,663.5C 768.115,666.659 767.115,669.992 766.5,673.5 Z"/></g>
<g><path style="opacity:1" fill="#aeafaa" d="M 766.5,673.5 C 805.5,674.167 844.5,674.833 883.5,675.5C 844.161,675.833 804.828,675.5 765.5,674.5C 765.624,673.893 765.957,673.56 766.5,673.5 Z"/></g>
<g><path style="opacity:1" fill="#d1d3cf" d="M 883.5,690.5 C 842.002,691.333 800.335,691.833 758.5,692C 758.833,693 759.167,694 759.5,695C 758.181,695.195 756.847,695.028 755.5,694.5C 755.511,692.983 756.177,691.816 757.5,691C 799.499,690.5 841.499,690.333 883.5,690.5 Z"/></g>
<g><path style="opacity:1" fill="#aeaeaa" d="M 754.5,695.5 C 753.722,697.225 753.389,698.891 753.5,700.5C 792.665,701.167 831.665,701.833 870.5,702.5C 830.613,701.848 790.947,702.515 751.5,704.5C 751.768,702.901 751.434,701.568 750.5,700.5C 751.604,698.611 752.937,696.945 754.5,695.5 Z"/></g>
<g><path style="opacity:1" fill="#070806" d="M 870.5,702.5 C 870.5,716.833 870.5,731.167 870.5,745.5C 876.358,745.178 882.025,745.511 887.5,746.5C 887.5,751.5 887.5,756.5 887.5,761.5C 881.5,761.5 875.5,761.5 869.5,761.5C 869.5,766.5 869.5,771.5 869.5,776.5C 869.5,781.167 869.5,785.833 869.5,790.5C 873.5,790.5 877.5,790.5 881.5,790.5C 882.492,790.328 883.158,790.662 883.5,791.5C 883.5,795.833 883.5,800.167 883.5,804.5C 878.821,804.334 874.155,804.501 869.5,805C 868.594,806.699 868.261,808.533 868.5,810.5C 865.515,819.149 861.015,826.816 855,833.5C 850.561,831.033 846.394,828.2 842.5,825C 847.791,819.583 850.791,813.083 851.5,805.5C 814.5,805.5 777.5,805.5 740.5,805.5C 741.512,790.76 743.179,776.093 745.5,761.5C 737.5,761.5 729.5,761.5 721.5,761.5C 721.5,756.5 721.5,751.5 721.5,746.5C 729.752,746.816 737.919,746.482 746,745.5C 748.235,731.881 750.069,718.215 751.5,704.5C 790.947,702.515 830.613,701.848 870.5,702.5 Z"/></g>
<g><path style="opacity:1" fill="#f9f9f8" d="M 854.5,717.5 C 854.5,726.833 854.5,736.167 854.5,745.5C 843.167,745.5 831.833,745.5 820.5,745.5C 817.578,738.489 814.245,731.656 810.5,725C 805.845,724.501 801.179,724.334 796.5,724.5C 798.24,731.052 800.573,737.386 803.5,743.5C 790.208,745.482 776.541,746.149 762.5,745.5C 762.368,742.43 762.701,739.43 763.5,736.5C 764.889,731.731 765.556,726.731 765.5,721.5C 765.5,720.167 765.5,718.833 765.5,717.5C 795.167,717.5 824.833,717.5 854.5,717.5 Z"/></g>
<g><path style="opacity:1" fill="#b9baba" d="M 765.5,721.5 C 765.556,726.731 764.889,731.731 763.5,736.5C 763.444,731.269 764.111,726.269 765.5,721.5 Z"/></g>
<g><path style="opacity:1" fill="#5f605a" d="M 803.5,743.5 C 804.404,744.209 804.737,745.209 804.5,746.5C 790.323,746.829 776.323,746.496 762.5,745.5C 776.541,746.149 790.208,745.482 803.5,743.5 Z"/></g>
<g><path style="opacity:1" fill="#40413c" d="M 854.5,717.5 C 855.494,727.319 855.827,737.319 855.5,747.5C 844.162,747.667 832.828,747.5 821.5,747C 820.944,746.617 820.611,746.117 820.5,745.5C 831.833,745.5 843.167,745.5 854.5,745.5C 854.5,736.167 854.5,726.833 854.5,717.5 Z"/></g>
<g><path style="opacity:1" fill="#727371" d="M 760.5,762.5 C 791.996,761.502 823.662,761.168 855.5,761.5C 855.768,763.099 855.434,764.432 854.5,765.5C 854.5,765.167 854.5,764.833 854.5,764.5C 823.518,762.507 792.184,761.841 760.5,762.5 Z"/></g>
<g><path style="opacity:1" fill="#777876" d="M 887.5,746.5 C 888.488,751.64 888.821,756.974 888.5,762.5C 882.5,762.5 876.5,762.5 870.5,762.5C 870.5,767.167 870.5,771.833 870.5,776.5C 870.167,776.5 869.833,776.5 869.5,776.5C 869.5,771.5 869.5,766.5 869.5,761.5C 875.5,761.5 881.5,761.5 887.5,761.5C 887.5,756.5 887.5,751.5 887.5,746.5 Z"/></g>
<g><path style="opacity:1" fill="#fbfbfa" d="M 760.5,762.5 C 792.184,761.841 823.518,762.507 854.5,764.5C 853.507,772.65 853.174,780.983 853.5,789.5C 842.5,789.5 831.5,789.5 820.5,789.5C 817.845,782.043 814.512,774.877 810.5,768C 805.511,767.501 800.511,767.334 795.5,767.5C 798.491,774.799 801.491,782.133 804.5,789.5C 789.167,789.5 773.833,789.5 758.5,789.5C 758.5,787.833 758.5,786.167 758.5,784.5C 758.796,776.986 759.462,769.653 760.5,762.5 Z"/></g>
<g><path style="opacity:1" fill="#898985" d="M 758.5,784.5 C 758.5,786.167 758.5,787.833 758.5,789.5C 773.833,789.5 789.167,789.5 804.5,789.5C 789.009,790.496 773.342,790.83 757.5,790.5C 757.205,788.265 757.539,786.265 758.5,784.5 Z"/></g>
<g><path style="opacity:1" fill="#b2b2b1" d="M 854.5,764.5 C 854.5,764.833 854.5,765.167 854.5,765.5C 854.5,773.833 854.5,782.167 854.5,790.5C 842.988,790.828 831.654,790.495 820.5,789.5C 831.5,789.5 842.5,789.5 853.5,789.5C 853.174,780.983 853.507,772.65 854.5,764.5 Z"/></g>
<g><path style="opacity:1" fill="#b9b9b7" d="M 869.5,776.5 C 869.833,776.5 870.167,776.5 870.5,776.5C 870.5,780.833 870.5,785.167 870.5,789.5C 874.371,789.185 878.038,789.518 881.5,790.5C 877.5,790.5 873.5,790.5 869.5,790.5C 869.5,785.833 869.5,781.167 869.5,776.5 Z"/></g>
<g><path style="opacity:1" fill="#b4b7b4" d="M 883.5,791.5 C 884.487,796.305 884.821,801.305 884.5,806.5C 879.5,806.5 874.5,806.5 869.5,806.5C 869.768,808.099 869.434,809.432 868.5,810.5C 868.261,808.533 868.594,806.699 869.5,805C 874.155,804.501 878.821,804.334 883.5,804.5C 883.5,800.167 883.5,795.833 883.5,791.5 Z"/></g>
<g><path style="opacity:1" fill="#0b0c0a" d="M 854.5,845.5 C 853.521,848.625 853.187,851.958 853.5,855.5C 878.833,855.5 904.167,855.5 929.5,855.5C 929.5,858.5 929.5,861.5 929.5,864.5C 927.87,876.824 925.037,888.824 921,900.5C 915.934,900.887 910.768,900.887 905.5,900.5C 907.989,890.876 910.323,881.21 912.5,871.5C 890.833,871.5 869.167,871.5 847.5,871.5C 844.761,883.374 840.428,894.708 834.5,905.5C 833.277,906.614 831.944,906.781 830.5,906C 827.661,904.08 824.661,902.413 821.5,901C 820.978,900.439 820.645,899.772 820.5,899C 825.196,887.913 829.696,876.747 834,865.5C 836.155,856.892 837.988,848.226 839.5,839.5C 843.826,838.565 848.16,838.732 852.5,840C 854.192,841.401 854.859,843.234 854.5,845.5 Z"/></g>
<g><path style="opacity:1" fill="#0a0b09" d="M 658.5,842.5 C 674.181,842.167 689.848,842.501 705.5,843.5C 707.467,847.297 709.634,850.964 712,854.5C 726.748,871.597 744.081,885.263 764,895.5C 762.783,899.952 760.95,904.286 758.5,908.5C 757.635,909.583 756.635,909.749 755.5,909C 732.14,896.309 712.473,879.309 696.5,858C 686.5,857.333 676.5,857.333 666.5,858C 664.119,862.887 661.119,867.387 657.5,871.5C 642.817,886.997 626.151,899.83 607.5,910C 605.888,910.72 604.388,910.554 603,909.5C 601.601,906.371 599.935,903.371 598,900.5C 597.51,899.207 597.343,897.873 597.5,896.5C 617.337,886.125 634.837,872.458 650,855.5C 653.056,851.284 655.889,846.951 658.5,842.5 Z"/></g>
<g><path style="opacity:1" fill="#a7a7a5" d="M 778.5,848.5 C 781.618,846.993 784.285,847.66 786.5,850.5C 783.888,849.629 781.221,848.963 778.5,848.5 Z"/></g>
<g><path style="opacity:1" fill="#0c0e0c" d="M 778.5,848.5 C 781.221,848.963 783.888,849.629 786.5,850.5C 797.235,855.092 807.901,860.092 818.5,865.5C 818.833,866.167 819.167,866.833 819.5,867.5C 818.149,871.526 816.815,875.526 815.5,879.5C 807.517,877.502 799.85,874.502 792.5,870.5C 792.027,869.094 791.027,868.427 789.5,868.5C 784.232,866.3 778.899,864.3 773.5,862.5C 774.753,857.744 776.42,853.077 778.5,848.5 Z"/></g>
<g><path style="opacity:1" fill="#777874" d="M 854.5,845.5 C 854.5,848.5 854.5,851.5 854.5,854.5C 879.833,854.5 905.167,854.5 930.5,854.5C 930.813,858.042 930.479,861.375 929.5,864.5C 929.5,861.5 929.5,858.5 929.5,855.5C 904.167,855.5 878.833,855.5 853.5,855.5C 853.187,851.958 853.521,848.625 854.5,845.5 Z"/></g>
<g><path style="opacity:1" fill="#757e7a" d="M 789.5,868.5 C 791.027,868.427 792.027,869.094 792.5,870.5C 790.973,870.573 789.973,869.906 789.5,868.5 Z"/></g>
<g><path style="opacity:1" fill="#070807" d="M 882.5,883.5 C 876.179,921.003 887.846,951.503 917.5,975C 924.124,979.311 930.958,983.144 938,986.5C 938.667,987.5 938.667,988.5 938,989.5C 935.344,993.144 933.511,997.144 932.5,1001.5C 905.615,990.949 886.615,972.282 875.5,945.5C 864.216,970.618 846.049,988.951 821,1000.5C 818.358,997.186 815.691,993.853 813,990.5C 812.316,989.216 812.483,988.049 813.5,987C 842.589,971.965 860.423,948.465 867,916.5C 867.498,913.183 867.665,909.85 867.5,906.5C 868.492,899.018 868.825,891.352 868.5,883.5C 873.167,883.5 877.833,883.5 882.5,883.5 Z"/></g>
<g><path style="opacity:1" fill="#484946" d="M 882.5,883.5 C 877.833,883.5 873.167,883.5 868.5,883.5C 868.825,891.352 868.492,899.018 867.5,906.5C 867.5,898.5 867.5,890.5 867.5,882.5C 872.695,882.179 877.695,882.513 882.5,883.5 Z"/></g>
<g><path style="opacity:1" fill="#10110f" d="M 638.5,896.5 C 666.833,896.5 695.167,896.5 723.5,896.5C 723.5,901.5 723.5,906.5 723.5,911.5C 695.167,911.5 666.833,911.5 638.5,911.5C 638.5,906.5 638.5,901.5 638.5,896.5 Z"/></g>
<g><path style="opacity:1" fill="#0a0a08" d="M 806.5,906.5 C 810.318,908.911 814.318,911.077 818.5,913C 819.554,914.388 819.72,915.888 819,917.5C 807.748,935.668 796.748,954.001 786,972.5C 785.094,974.612 783.594,975.445 781.5,975C 778.703,971.77 775.37,969.27 771.5,967.5C 770.417,966.635 770.251,965.635 771,964.5C 782.593,944.972 794.427,925.639 806.5,906.5 Z"/></g>
<g><path style="opacity:1" fill="#b4b4af" d="M 758.5,929.5 C 706.833,929.5 655.167,929.5 603.5,929.5C 603.5,934.167 603.5,938.833 603.5,943.5C 602.513,938.695 602.179,933.695 602.5,928.5C 654.669,928.168 706.669,928.501 758.5,929.5 Z"/></g>
<g><path style="opacity:1" fill="#0b0c09" d="M 758.5,929.5 C 758.5,934.833 758.5,940.167 758.5,945.5C 730.498,945.333 702.498,945.5 674.5,946C 664.856,958.112 654.856,969.945 644.5,981.5C 653.475,982.498 662.475,982.832 671.5,982.5C 688.18,982.833 704.847,982.499 721.5,981.5C 721.376,980.893 721.043,980.56 720.5,980.5C 715.687,973.205 711.687,965.538 708.5,957.5C 713.331,957.611 717.998,957.111 722.5,956C 732.703,969.567 742.036,983.734 750.5,998.5C 745.748,999.148 741.248,1000.48 737,1002.5C 735.225,1001.73 733.725,1000.56 732.5,999C 694.835,998.5 657.168,998.333 619.5,998.5C 618.66,994.17 618.16,989.837 618,985.5C 630.381,972.955 642.214,959.955 653.5,946.5C 654.167,946.5 654.5,946.167 654.5,945.5C 655.043,945.44 655.376,945.107 655.5,944.5C 638.179,943.5 620.846,943.167 603.5,943.5C 603.5,938.833 603.5,934.167 603.5,929.5C 655.167,929.5 706.833,929.5 758.5,929.5 Z"/></g>
<g><path style="opacity:1" fill="#2b2d28" d="M 603.5,943.5 C 620.846,943.167 638.179,943.5 655.5,944.5C 655.376,945.107 655.043,945.44 654.5,945.5C 638.008,944.503 621.342,944.17 604.5,944.5C 603.833,944.5 603.5,944.167 603.5,943.5 Z"/></g>
<g><path style="opacity:1" fill="#b3b4b0" d="M 604.5,944.5 C 621.342,944.17 638.008,944.503 654.5,945.5C 654.5,946.167 654.167,946.5 653.5,946.5C 637.167,945.833 620.833,945.167 604.5,944.5 Z"/></g>
<g><path style="opacity:1" fill="#a6a7a3" d="M 720.5,980.5 C 721.043,980.56 721.376,980.893 721.5,981.5C 704.847,982.499 688.18,982.833 671.5,982.5C 687.833,981.833 704.167,981.167 720.5,980.5 Z"/></g>
<g><path style="opacity:1" fill="#090a08" d="M 660.5,1028.5 C 657.603,1029.13 654.936,1030.13 652.5,1031.5C 649.848,1031.41 647.515,1032.08 645.5,1033.5C 643.901,1033.23 642.568,1033.57 641.5,1034.5C 635.629,1035.47 629.963,1036.8 624.5,1038.5C 623.506,1048.65 623.172,1058.99 623.5,1069.5C 625.099,1069.77 626.432,1069.43 627.5,1068.5C 636.503,1065.61 645.17,1061.94 653.5,1057.5C 653.833,1056.67 654.167,1055.83 654.5,1055C 652.855,1050.57 651.521,1046.07 650.5,1041.5C 652.216,1041.37 653.883,1041.04 655.5,1040.5C 657.861,1040.33 660.194,1039.99 662.5,1039.5C 667.965,1049.43 672.632,1059.77 676.5,1070.5C 676.664,1073.19 676.497,1075.85 676,1078.5C 674.855,1079.64 673.688,1080.64 672.5,1081.5C 670.218,1082.39 667.885,1082.56 665.5,1082C 664.063,1079.31 663.063,1076.48 662.5,1073.5C 659.707,1072.25 657.04,1072.59 654.5,1074.5C 652.033,1074.75 650.033,1075.75 648.5,1077.5C 640.487,1079.39 632.821,1082.06 625.5,1085.5C 624.833,1085.5 624.167,1085.5 623.5,1085.5C 621.102,1085.26 619.102,1085.93 617.5,1087.5C 614.852,1088.16 612.185,1088.83 609.5,1089.5C 608.558,1089.39 607.725,1089.06 607,1088.5C 607.34,1067.85 607.506,1047.18 607.5,1026.5C 612.552,1026.55 617.552,1026.05 622.5,1025C 624.491,1024.63 626.158,1023.79 627.5,1022.5C 627.833,1022.5 628.167,1022.5 628.5,1022.5C 631.152,1022.59 633.485,1021.92 635.5,1020.5C 635.833,1020.5 636.167,1020.5 636.5,1020.5C 640.162,1020.28 643.495,1019.28 646.5,1017.5C 646.833,1017.5 647.167,1017.5 647.5,1017.5C 649.967,1017.25 651.967,1016.25 653.5,1014.5C 657.197,1011.99 661.197,1009.99 665.5,1008.5C 670.001,1010.64 673.001,1014.14 674.5,1019C 670.474,1023.21 665.807,1026.37 660.5,1028.5 Z"/></g>
<g><path style="opacity:1" fill="#686964" d="M 850.5,1013.5 C 845.167,1013.5 839.833,1013.5 834.5,1013.5C 834.768,1015.1 834.434,1016.43 833.5,1017.5C 833.5,1015.83 833.5,1014.17 833.5,1012.5C 839.358,1012.18 845.025,1012.51 850.5,1013.5 Z"/></g>
<g><path style="opacity:1" fill="#0c0c0a" d="M 805.5,1005.5 C 805.5,1009.83 805.5,1014.17 805.5,1018.5C 815.015,1018.83 824.348,1018.49 833.5,1017.5C 834.434,1016.43 834.768,1015.1 834.5,1013.5C 839.833,1013.5 845.167,1013.5 850.5,1013.5C 851.028,1032.59 845.028,1049.25 832.5,1063.5C 832.916,1065.72 834.25,1067.05 836.5,1067.5C 836.973,1068.91 837.973,1069.57 839.5,1069.5C 842.47,1070.54 845.137,1072.04 847.5,1074C 845.371,1077.09 843.371,1080.26 841.5,1083.5C 840.292,1084.23 838.959,1084.57 837.5,1084.5C 831.655,1081.32 825.821,1077.99 820,1074.5C 814.736,1076.65 809.903,1079.31 805.5,1082.5C 801.064,1083.41 797.064,1085.08 793.5,1087.5C 788.769,1088.52 784.103,1089.85 779.5,1091.5C 778.833,1091.17 778.167,1090.83 777.5,1090.5C 775.83,1086.49 774.164,1082.49 772.5,1078.5C 772.818,1077.35 773.484,1076.52 774.5,1076C 777.777,1074.86 781.11,1074.02 784.5,1073.5C 787.152,1073.59 789.485,1072.92 791.5,1071.5C 791.611,1070.88 791.944,1070.38 792.5,1070C 794.866,1069.56 797.199,1069.06 799.5,1068.5C 801.312,1068.23 802.978,1067.56 804.5,1066.5C 804.376,1065.89 804.043,1065.56 803.5,1065.5C 797.609,1061.24 791.443,1057.24 785,1053.5C 785.181,1048.1 786.014,1042.76 787.5,1037.5C 788.451,1036.08 788.784,1034.41 788.5,1032.5C 784.167,1032.5 779.833,1032.5 775.5,1032.5C 774.513,1027.69 774.179,1022.69 774.5,1017.5C 779.5,1017.5 784.5,1017.5 789.5,1017.5C 789.5,1013.5 789.5,1009.5 789.5,1005.5C 794.833,1005.5 800.167,1005.5 805.5,1005.5 Z"/></g>
<g><path style="opacity:1" fill="#424241" d="M 929.5,1025.5 C 929.5,1021.83 929.5,1018.17 929.5,1014.5C 906.5,1014.5 883.5,1014.5 860.5,1014.5C 860.5,1019.17 860.5,1023.83 860.5,1028.5C 859.513,1023.69 859.179,1018.69 859.5,1013.5C 883.167,1013.5 906.833,1013.5 930.5,1013.5C 930.817,1017.7 930.483,1021.7 929.5,1025.5 Z"/></g>
<g><path style="opacity:1" fill="#070808" d="M 929.5,1025.5 C 928.176,1031.15 926.009,1036.49 923,1041.5C 918.383,1048.61 913.216,1055.28 907.5,1061.5C 903.5,1062.83 903.5,1064.17 907.5,1065.5C 908.514,1066.67 909.847,1067.34 911.5,1067.5C 913.509,1069.07 915.843,1070.07 918.5,1070.5C 924.26,1073.11 930.26,1075.11 936.5,1076.5C 935.185,1080.78 933.851,1085.12 932.5,1089.5C 931.292,1090.23 929.959,1090.57 928.5,1090.5C 922.034,1089.26 916.034,1086.93 910.5,1083.5C 908.252,1080.61 905.252,1078.94 901.5,1078.5C 898.149,1077.2 894.982,1075.54 892,1073.5C 887.075,1076.04 882.242,1078.71 877.5,1081.5C 875.033,1081.75 873.033,1082.75 871.5,1084.5C 871.167,1084.5 870.833,1084.5 870.5,1084.5C 866.059,1086.11 861.392,1086.77 856.5,1086.5C 855.703,1082.78 854.703,1079.11 853.5,1075.5C 856.947,1074.92 859.947,1073.58 862.5,1071.5C 866.172,1069.82 869.839,1068.16 873.5,1066.5C 875.179,1066.11 876.846,1065.61 878.5,1065C 879.774,1064.02 879.774,1063.19 878.5,1062.5C 872.855,1055.89 867.688,1048.89 863,1041.5C 861.748,1038.99 861.248,1036.32 861.5,1033.5C 865.832,1032.9 870.165,1032.74 874.5,1033C 878.613,1039.45 883.113,1045.61 888,1051.5C 888.804,1052.8 889.971,1053.47 891.5,1053.5C 899.691,1047.79 906.025,1040.46 910.5,1031.5C 911.434,1030.43 911.768,1029.1 911.5,1027.5C 894.658,1027.17 877.992,1027.5 861.5,1028.5C 861.167,1028.5 860.833,1028.5 860.5,1028.5C 860.5,1023.83 860.5,1019.17 860.5,1014.5C 883.5,1014.5 906.5,1014.5 929.5,1014.5C 929.5,1018.17 929.5,1021.83 929.5,1025.5 Z"/></g>
<g><path style="opacity:1" fill="#555753" d="M 653.5,1014.5 C 651.967,1016.25 649.967,1017.25 647.5,1017.5C 649.033,1015.75 651.033,1014.75 653.5,1014.5 Z"/></g>
<g><path style="opacity:1" fill="#b6b6b4" d="M 805.5,1005.5 C 806.483,1009.3 806.817,1013.3 806.5,1017.5C 815.5,1017.5 824.5,1017.5 833.5,1017.5C 824.348,1018.49 815.015,1018.83 805.5,1018.5C 805.5,1014.17 805.5,1009.83 805.5,1005.5 Z"/></g>
<g><path style="opacity:1" fill="#5c5c59" d="M 646.5,1017.5 C 643.495,1019.28 640.162,1020.28 636.5,1020.5C 639.505,1018.72 642.838,1017.72 646.5,1017.5 Z"/></g>
<g><path style="opacity:1" fill="#2d2e2b" d="M 713.5,1018.5 C 703.347,1019.49 693.014,1019.83 682.5,1019.5C 682.5,1023.5 682.5,1027.5 682.5,1031.5C 688.026,1031.18 693.36,1031.51 698.5,1032.5C 692.833,1032.5 687.167,1032.5 681.5,1032.5C 681.5,1027.83 681.5,1023.17 681.5,1018.5C 692.167,1018.5 702.833,1018.5 713.5,1018.5 Z"/></g>
<g><path style="opacity:1" fill="#080907" d="M 738.5,1060.5 C 739.494,1051.35 739.827,1042.01 739.5,1032.5C 730.983,1032.17 722.65,1032.51 714.5,1033.5C 713.523,1036.29 713.19,1039.29 713.5,1042.5C 712.09,1063.66 703.09,1080.66 686.5,1093.5C 686.167,1093.5 685.833,1093.5 685.5,1093.5C 684.833,1093.5 684.167,1093.5 683.5,1093.5C 681.183,1089.85 678.516,1086.52 675.5,1083.5C 676.075,1081.59 677.075,1079.92 678.5,1078.5C 686.012,1074.15 691.178,1067.81 694,1059.5C 694.849,1056.48 695.683,1053.48 696.5,1050.5C 698.04,1048.16 698.706,1045.5 698.5,1042.5C 698.5,1040.83 698.5,1039.17 698.5,1037.5C 699.833,1035.83 699.833,1034.17 698.5,1032.5C 693.36,1031.51 688.026,1031.18 682.5,1031.5C 682.5,1027.5 682.5,1023.5 682.5,1019.5C 693.014,1019.83 703.347,1019.49 713.5,1018.5C 727.145,1017.61 740.811,1017.28 754.5,1017.5C 754.928,1034.88 754.428,1052.21 753,1069.5C 749.14,1078.08 743.307,1084.91 735.5,1090C 731.848,1090.5 728.182,1090.67 724.5,1090.5C 724.459,1086.38 723.793,1082.38 722.5,1078.5C 732.403,1076.6 737.736,1070.6 738.5,1060.5 Z"/></g>
<g><path style="opacity:1" fill="#5b5c59" d="M 635.5,1020.5 C 633.485,1021.92 631.152,1022.59 628.5,1022.5C 630.515,1021.08 632.848,1020.41 635.5,1020.5 Z"/></g>
<g><path style="opacity:1" fill="#383835" d="M 627.5,1022.5 C 626.158,1023.79 624.491,1024.63 622.5,1025C 617.552,1026.05 612.552,1026.55 607.5,1026.5C 614.056,1025.1 620.723,1023.76 627.5,1022.5 Z"/></g>
<g><path style="opacity:1" fill="#80817d" d="M 861.5,1028.5 C 877.992,1027.5 894.658,1027.17 911.5,1027.5C 911.768,1029.1 911.434,1030.43 910.5,1031.5C 910.5,1030.5 910.5,1029.5 910.5,1028.5C 894.167,1028.5 877.833,1028.5 861.5,1028.5 Z"/></g>
<g><path style="opacity:1" fill="#959791" d="M 660.5,1028.5 C 658.383,1030.65 655.716,1031.65 652.5,1031.5C 654.936,1030.13 657.603,1029.13 660.5,1028.5 Z"/></g>
<g><path style="opacity:1" fill="#868783" d="M 652.5,1031.5 C 650.485,1032.92 648.152,1033.59 645.5,1033.5C 647.515,1032.08 649.848,1031.41 652.5,1031.5 Z"/></g>
<g><path style="opacity:1" fill="#a4a5a2" d="M 681.5,1032.5 C 687.167,1032.5 692.833,1032.5 698.5,1032.5C 699.833,1034.17 699.833,1035.83 698.5,1037.5C 698.5,1036.17 698.5,1034.83 698.5,1033.5C 692.642,1033.82 686.975,1033.49 681.5,1032.5 Z"/></g>
<g><path style="opacity:1" fill="#9e9f9c" d="M 775.5,1032.5 C 779.833,1032.5 784.167,1032.5 788.5,1032.5C 788.784,1034.41 788.451,1036.08 787.5,1037.5C 787.5,1036.17 787.5,1034.83 787.5,1033.5C 783.298,1033.82 779.298,1033.48 775.5,1032.5 Z"/></g>
<g><path style="opacity:1" fill="#cccdcb" d="M 714.5,1033.5 C 722.684,1033.17 730.684,1033.51 738.5,1034.5C 730.5,1034.5 722.5,1034.5 714.5,1034.5C 714.806,1037.39 714.473,1040.05 713.5,1042.5C 713.19,1039.29 713.523,1036.29 714.5,1033.5 Z"/></g>
<g><path style="opacity:1" fill="#ccccca" d="M 830.5,1038.5 C 830.5,1037.17 830.5,1035.83 830.5,1034.5C 821.475,1034.17 812.475,1034.5 803.5,1035.5C 802.173,1039.53 802.173,1043.53 803.5,1047.5C 802.206,1045.95 801.539,1043.95 801.5,1041.5C 801.559,1039.11 801.893,1036.78 802.5,1034.5C 812.5,1033.17 822.5,1033.17 832.5,1034.5C 832.006,1036.03 831.339,1037.36 830.5,1038.5 Z"/></g>
<g><path style="opacity:1" fill="#f7f8f6" d="M 830.5,1038.5 C 828.243,1046.03 824.243,1052.37 818.5,1057.5C 813.302,1054.41 808.302,1051.07 803.5,1047.5C 802.173,1043.53 802.173,1039.53 803.5,1035.5C 812.475,1034.5 821.475,1034.17 830.5,1034.5C 830.5,1035.83 830.5,1037.17 830.5,1038.5 Z"/></g>
<g><path style="opacity:1" fill="#aeafaa" d="M 641.5,1034.5 C 636.312,1037.44 630.646,1038.78 624.5,1038.5C 629.963,1036.8 635.629,1035.47 641.5,1034.5 Z"/></g>
<g><path style="opacity:1" fill="#6e6e6d" d="M 662.5,1039.5 C 660.194,1039.99 657.861,1040.33 655.5,1040.5C 657.713,1038.69 660.047,1038.35 662.5,1039.5 Z"/></g>
<g><path style="opacity:1" fill="#7b7c78" d="M 714.5,1033.5 C 722.65,1032.51 730.983,1032.17 739.5,1032.5C 739.827,1042.01 739.494,1051.35 738.5,1060.5C 738.5,1051.83 738.5,1043.17 738.5,1034.5C 730.684,1033.51 722.684,1033.17 714.5,1033.5 Z"/></g>
<g><path style="opacity:1" fill="#7b7c79" d="M 698.5,1042.5 C 698.706,1045.5 698.04,1048.16 696.5,1050.5C 696.565,1047.57 697.232,1044.91 698.5,1042.5 Z"/></g>
<g><path style="opacity:1" fill="#949593" d="M 624.5,1038.5 C 624.5,1048.5 624.5,1058.5 624.5,1068.5C 625.5,1068.5 626.5,1068.5 627.5,1068.5C 626.432,1069.43 625.099,1069.77 623.5,1069.5C 623.172,1058.99 623.506,1048.65 624.5,1038.5 Z"/></g>
<g><path style="opacity:1" fill="#a3a4a2" d="M 907.5,1061.5 C 906.167,1062.83 906.167,1064.17 907.5,1065.5C 903.5,1064.17 903.5,1062.83 907.5,1061.5 Z"/></g>
<g><path style="opacity:1" fill="#62635d" d="M 878.5,1062.5 C 879.774,1063.19 879.774,1064.02 878.5,1065C 876.846,1065.61 875.179,1066.11 873.5,1066.5C 875.167,1065.17 876.833,1063.83 878.5,1062.5 Z"/></g>
<g><path style="opacity:1" fill="#71726e" d="M 803.5,1065.5 C 804.043,1065.56 804.376,1065.89 804.5,1066.5C 802.978,1067.56 801.312,1068.23 799.5,1068.5C 800.59,1067.14 801.924,1066.14 803.5,1065.5 Z"/></g>
<g><path style="opacity:1" fill="#9a9b9d" d="M 911.5,1067.5 C 914.491,1067.17 916.824,1068.17 918.5,1070.5C 915.843,1070.07 913.509,1069.07 911.5,1067.5 Z"/></g>
<g><path style="opacity:1" fill="#797a75" d="M 836.5,1067.5 C 838.027,1067.43 839.027,1068.09 839.5,1069.5C 837.973,1069.57 836.973,1068.91 836.5,1067.5 Z"/></g>
<g><path style="opacity:1" fill="#4e4e4c" d="M 791.5,1071.5 C 789.485,1072.92 787.152,1073.59 784.5,1073.5C 786.515,1072.08 788.848,1071.41 791.5,1071.5 Z"/></g>
<g><path style="opacity:1" fill="#90908e" d="M 662.5,1073.5 C 659.833,1073.83 657.167,1074.17 654.5,1074.5C 657.04,1072.59 659.707,1072.25 662.5,1073.5 Z"/></g>
<g><path style="opacity:1" fill="#5b5c58" d="M 862.5,1071.5 C 859.947,1073.58 856.947,1074.92 853.5,1075.5C 856.053,1073.42 859.053,1072.08 862.5,1071.5 Z"/></g>
<g><path style="opacity:1" fill="#a2a2a0" d="M 654.5,1074.5 C 652.967,1076.25 650.967,1077.25 648.5,1077.5C 650.033,1075.75 652.033,1074.75 654.5,1074.5 Z"/></g>
<g><path style="opacity:1" fill="#a2a49f" d="M 676.5,1070.5 C 677.167,1073.17 677.833,1075.83 678.5,1078.5C 677.075,1079.92 676.075,1081.59 675.5,1083.5C 674.778,1082.45 673.778,1081.78 672.5,1081.5C 673.688,1080.64 674.855,1079.64 676,1078.5C 676.497,1075.85 676.664,1073.19 676.5,1070.5 Z"/></g>
<g><path style="opacity:1" fill="#656d66" d="M 901.5,1078.5 C 905.252,1078.94 908.252,1080.61 910.5,1083.5C 909.448,1083.65 908.448,1083.48 907.5,1083C 905.474,1081.41 903.474,1079.91 901.5,1078.5 Z"/></g>
<g><path style="opacity:1" fill="#959593" d="M 877.5,1081.5 C 875.967,1083.25 873.967,1084.25 871.5,1084.5C 873.033,1082.75 875.033,1081.75 877.5,1081.5 Z"/></g>
<g><path style="opacity:1" fill="#f1f2f1" d="M 662.5,1073.5 C 663.063,1076.48 664.063,1079.31 665.5,1082C 667.885,1082.56 670.218,1082.39 672.5,1081.5C 673.778,1081.78 674.778,1082.45 675.5,1083.5C 678.516,1086.52 681.183,1089.85 683.5,1093.5C 676.352,1094.49 669.019,1094.82 661.5,1094.5C 650.833,1094.5 640.167,1094.5 629.5,1094.5C 629.586,1093.5 629.252,1092.67 628.5,1092C 629.5,1091.67 630.5,1091.33 631.5,1091C 630.655,1089.44 631.321,1088.44 633.5,1088C 632.167,1087 632.167,1086 633.5,1085C 630.843,1084.83 628.176,1084.99 625.5,1085.5C 632.821,1082.06 640.487,1079.39 648.5,1077.5C 650.967,1077.25 652.967,1076.25 654.5,1074.5C 657.167,1074.17 659.833,1073.83 662.5,1073.5 Z"/></g>
<g><path style="opacity:1" fill="#9c9d97" d="M 805.5,1082.5 C 801.936,1084.92 797.936,1086.59 793.5,1087.5C 797.064,1085.08 801.064,1083.41 805.5,1082.5 Z"/></g>
<g><path style="opacity:1" fill="#bdbdb9" d="M 841.5,1083.5 C 841.5,1084.5 841.5,1085.5 841.5,1086.5C 845.371,1086.19 849.038,1086.52 852.5,1087.5C 847.847,1087 843.514,1087.67 839.5,1089.5C 839.169,1087.68 838.502,1086.01 837.5,1084.5C 838.959,1084.57 840.292,1084.23 841.5,1083.5 Z"/></g>
<g><path style="opacity:1" fill="#a0a09b" d="M 623.5,1085.5 C 621.898,1087.07 619.898,1087.74 617.5,1087.5C 619.102,1085.93 621.102,1085.26 623.5,1085.5 Z"/></g>
<g><path style="opacity:1" fill="#a6a7a4" d="M 870.5,1084.5 C 866.188,1087.53 861.521,1088.2 856.5,1086.5C 861.392,1086.77 866.059,1086.11 870.5,1084.5 Z"/></g>
<g><path style="opacity:1" fill="#0a0b09" d="M 852.5,1087.5 C 853.167,1087.5 853.5,1087.83 853.5,1088.5C 853.5,1091.5 853.5,1094.5 853.5,1097.5C 877.167,1097.5 900.833,1097.5 924.5,1097.5C 924.667,1111.84 924.5,1126.17 924,1140.5C 920.814,1154.69 912.314,1164.19 898.5,1169C 894.606,1169.96 890.773,1171.13 887,1172.5C 886.228,1172.36 885.561,1172.02 885,1171.5C 883.516,1167.25 882.849,1162.91 883,1158.5C 887.208,1156.09 891.708,1154.26 896.5,1153C 903.883,1149.08 907.883,1142.91 908.5,1134.5C 909.492,1127.35 909.825,1120.02 909.5,1112.5C 890.167,1112.5 870.833,1112.5 851.5,1112.5C 851.5,1113.83 851.5,1115.17 851.5,1116.5C 847.947,1129.23 840.947,1139.73 830.5,1148C 814.32,1159.76 796.653,1168.26 777.5,1173.5C 776.149,1168.1 774.816,1162.76 773.5,1157.5C 794.281,1152.92 812.448,1143.25 828,1128.5C 831.017,1124.47 833.517,1120.13 835.5,1115.5C 836.404,1114.79 836.737,1113.79 836.5,1112.5C 819.325,1112.83 802.325,1112.5 785.5,1111.5C 785.5,1106.83 785.5,1102.17 785.5,1097.5C 803.674,1097.83 821.674,1097.5 839.5,1096.5C 839.5,1094.17 839.5,1091.83 839.5,1089.5C 843.514,1087.67 847.847,1087 852.5,1087.5 Z"/></g>
<g><path style="opacity:1" fill="#7b7f7c" d="M 932.5,1089.5 C 932.38,1090.59 931.713,1091.25 930.5,1091.5C 929.584,1091.46 928.917,1091.12 928.5,1090.5C 929.959,1090.57 931.292,1090.23 932.5,1089.5 Z"/></g>
<g><path style="opacity:1" fill="#a6a7a5" d="M 629.5,1094.5 C 640.167,1094.5 650.833,1094.5 661.5,1094.5C 646.34,1095.55 631.007,1096.22 615.5,1096.5C 620.064,1095.78 624.731,1095.12 629.5,1094.5 Z"/></g>
<g><path style="opacity:1" fill="#a4a6a1" d="M 685.5,1093.5 C 685.833,1093.5 686.167,1093.5 686.5,1093.5C 705.833,1094.17 725.167,1094.83 744.5,1095.5C 724.472,1096.15 704.805,1095.49 685.5,1093.5 Z"/></g>
<g><path style="opacity:1" fill="#383a36" d="M 683.5,1093.5 C 684.167,1093.5 684.833,1093.5 685.5,1093.5C 704.805,1095.49 724.472,1096.15 744.5,1095.5C 745.461,1097.26 745.795,1099.26 745.5,1101.5C 744.549,1100.08 744.216,1098.41 744.5,1096.5C 708.329,1096.17 672.329,1096.5 636.5,1097.5C 629.5,1097.5 622.5,1097.5 615.5,1097.5C 615.5,1097.17 615.5,1096.83 615.5,1096.5C 631.007,1096.22 646.34,1095.55 661.5,1094.5C 669.019,1094.82 676.352,1094.49 683.5,1093.5 Z"/></g>
<g><path style="opacity:1" fill="#686966" d="M 839.5,1096.5 C 821.674,1097.5 803.674,1097.83 785.5,1097.5C 785.5,1102.17 785.5,1106.83 785.5,1111.5C 785.167,1111.5 784.833,1111.5 784.5,1111.5C 784.5,1106.5 784.5,1101.5 784.5,1096.5C 802.833,1096.5 821.167,1096.5 839.5,1096.5 Z"/></g>
<g><path style="opacity:1" fill="#91928d" d="M 853.5,1088.5 C 854.473,1090.95 854.806,1093.61 854.5,1096.5C 878.006,1096.17 901.339,1096.5 924.5,1097.5C 900.833,1097.5 877.167,1097.5 853.5,1097.5C 853.5,1094.5 853.5,1091.5 853.5,1088.5 Z"/></g>
<g><path style="opacity:1" fill="#030402" d="M 615.5,1097.5 C 622.5,1097.5 629.5,1097.5 636.5,1097.5C 637.833,1097.5 639.167,1097.5 640.5,1097.5C 640.5,1098.5 640.5,1099.5 640.5,1100.5C 636.551,1100.69 636.551,1101.19 640.5,1102C 639.167,1103 639.167,1104 640.5,1105C 639.377,1106.04 638.044,1106.71 636.5,1107C 647.801,1109.12 658.134,1108.28 667.5,1104.5C 668.167,1104.67 668.833,1104.83 669.5,1105C 668.167,1106 668.167,1107 669.5,1108C 656.815,1109.15 644.148,1109.98 631.5,1110.5C 630.596,1111.21 630.263,1112.21 630.5,1113.5C 630.5,1118.5 630.5,1123.5 630.5,1128.5C 629.733,1129.17 629.066,1130.01 628.5,1131C 629.813,1140.23 630.813,1149.4 631.5,1158.5C 631.662,1160.53 631.495,1162.53 631,1164.5C 628.763,1166.71 626.263,1168.55 623.5,1170C 626.167,1170.33 628.833,1170.67 631.5,1171C 629.618,1171.2 627.952,1171.7 626.5,1172.5C 622.833,1172.5 619.167,1172.5 615.5,1172.5C 615.5,1147.5 615.5,1122.5 615.5,1097.5 Z"/></g>
<g><path style="opacity:1" fill="#818280" d="M 631.5,1110.5 C 645.01,1110.17 658.344,1110.5 671.5,1111.5C 671.167,1111.5 670.833,1111.5 670.5,1111.5C 657.124,1110.85 644.124,1111.52 631.5,1113.5C 631.167,1113.5 630.833,1113.5 630.5,1113.5C 630.263,1112.21 630.596,1111.21 631.5,1110.5 Z"/></g>
<g><path style="opacity:1" fill="#bfc1c0" d="M 784.5,1111.5 C 784.833,1111.5 785.167,1111.5 785.5,1111.5C 802.325,1112.5 819.325,1112.83 836.5,1112.5C 836.737,1113.79 836.404,1114.79 835.5,1115.5C 818.5,1114.17 801.5,1112.83 784.5,1111.5 Z"/></g>
<g><path style="opacity:1" fill="#91928e" d="M 908.5,1134.5 C 908.5,1127.5 908.5,1120.5 908.5,1113.5C 889.833,1113.5 871.167,1113.5 852.5,1113.5C 852.737,1114.79 852.404,1115.79 851.5,1116.5C 851.5,1115.17 851.5,1113.83 851.5,1112.5C 870.833,1112.5 890.167,1112.5 909.5,1112.5C 909.825,1120.02 909.492,1127.35 908.5,1134.5 Z"/></g>
<g><path style="opacity:1" fill="#edf0f0" d="M 670.5,1111.5 C 670.5,1116.5 670.5,1121.5 670.5,1126.5C 657.5,1126.5 644.5,1126.5 631.5,1126.5C 631.5,1122.17 631.5,1117.83 631.5,1113.5C 644.124,1111.52 657.124,1110.85 670.5,1111.5 Z"/></g>
<g><path style="opacity:1" fill="#b7bab8" d="M 670.5,1111.5 C 670.833,1111.5 671.167,1111.5 671.5,1111.5C 671.5,1116.83 671.5,1122.17 671.5,1127.5C 657.99,1127.83 644.656,1127.5 631.5,1126.5C 644.5,1126.5 657.5,1126.5 670.5,1126.5C 670.5,1121.5 670.5,1116.5 670.5,1111.5 Z"/></g>
<g><path style="opacity:1" fill="#0c0c0a" d="M 636.5,1097.5 C 672.329,1096.5 708.329,1096.17 744.5,1096.5C 744.216,1098.41 744.549,1100.08 745.5,1101.5C 745.667,1119.84 745.5,1138.17 745,1156.5C 743.841,1163.84 740.008,1169.17 733.5,1172.5C 697.833,1172.5 662.167,1172.5 626.5,1172.5C 627.952,1171.7 629.618,1171.2 631.5,1171C 628.833,1170.67 626.167,1170.33 623.5,1170C 626.263,1168.55 628.763,1166.71 631,1164.5C 631.495,1162.53 631.662,1160.53 631.5,1158.5C 645.01,1158.83 658.344,1158.5 671.5,1157.5C 672.258,1152.32 672.925,1146.99 673.5,1141.5C 672.737,1138.31 672.737,1135.31 673.5,1132.5C 672.37,1131.38 671.703,1130.04 671.5,1128.5C 671.5,1128.17 671.5,1127.83 671.5,1127.5C 671.5,1122.17 671.5,1116.83 671.5,1111.5C 658.344,1110.5 645.01,1110.17 631.5,1110.5C 644.148,1109.98 656.815,1109.15 669.5,1108C 668.167,1107 668.167,1106 669.5,1105C 668.833,1104.83 668.167,1104.67 667.5,1104.5C 658.134,1108.28 647.801,1109.12 636.5,1107C 638.044,1106.71 639.377,1106.04 640.5,1105C 639.167,1104 639.167,1103 640.5,1102C 636.551,1101.19 636.551,1100.69 640.5,1100.5C 640.5,1099.5 640.5,1098.5 640.5,1097.5C 639.167,1097.5 637.833,1097.5 636.5,1097.5 Z"/></g>
<g><path style="opacity:1" fill="#f8f8f6" d="M 688.5,1110.5 C 701.833,1110.5 715.167,1110.5 728.5,1110.5C 728.5,1115.83 728.5,1121.17 728.5,1126.5C 715.167,1126.5 701.833,1126.5 688.5,1126.5C 688.5,1121.17 688.5,1115.83 688.5,1110.5 Z"/></g>
<g><path style="opacity:1" fill="#a3a5a0" d="M 688.5,1110.5 C 688.5,1115.83 688.5,1121.17 688.5,1126.5C 701.833,1126.5 715.167,1126.5 728.5,1126.5C 715.01,1127.5 701.344,1127.83 687.5,1127.5C 687.178,1121.64 687.511,1115.98 688.5,1110.5 Z"/></g>
<g><path style="opacity:1" fill="#4f5150" d="M 630.5,1113.5 C 630.833,1113.5 631.167,1113.5 631.5,1113.5C 631.5,1117.83 631.5,1122.17 631.5,1126.5C 644.656,1127.5 657.99,1127.83 671.5,1127.5C 671.5,1127.83 671.5,1128.17 671.5,1128.5C 657.833,1128.5 644.167,1128.5 630.5,1128.5C 630.5,1123.5 630.5,1118.5 630.5,1113.5 Z"/></g>
<g><path style="opacity:1" fill="#171815" d="M 630.5,1128.5 C 644.167,1128.5 657.833,1128.5 671.5,1128.5C 671.703,1130.04 672.37,1131.38 673.5,1132.5C 672.737,1135.31 672.737,1138.31 673.5,1141.5C 672.925,1146.99 672.258,1152.32 671.5,1157.5C 671.5,1152.17 671.5,1146.83 671.5,1141.5C 657.99,1141.17 644.656,1141.5 631.5,1142.5C 631.5,1142.83 631.5,1143.17 631.5,1143.5C 631.5,1148.5 631.5,1153.5 631.5,1158.5C 630.813,1149.4 629.813,1140.23 628.5,1131C 629.066,1130.01 629.733,1129.17 630.5,1128.5 Z"/></g>
<g><path style="opacity:1" fill="#6f716e" d="M 728.5,1144.5 C 728.5,1143.5 728.5,1142.5 728.5,1141.5C 715.167,1141.5 701.833,1141.5 688.5,1141.5C 688.5,1146.83 688.5,1152.17 688.5,1157.5C 701.167,1157.5 713.833,1157.5 726.5,1157.5C 713.677,1158.5 700.677,1158.83 687.5,1158.5C 687.5,1152.5 687.5,1146.5 687.5,1140.5C 701.5,1140.5 715.5,1140.5 729.5,1140.5C 729.768,1142.1 729.434,1143.43 728.5,1144.5 Z"/></g>
<g><path style="opacity:1" fill="#e6e8e9" d="M 631.5,1143.5 C 631.5,1143.17 631.5,1142.83 631.5,1142.5C 644.5,1142.5 657.5,1142.5 670.5,1142.5C 670.5,1147.17 670.5,1151.83 670.5,1156.5C 659.321,1156.17 648.321,1156.51 637.5,1157.5C 635.833,1157.5 634.167,1157.5 632.5,1157.5C 632.819,1152.64 632.486,1147.97 631.5,1143.5 Z"/></g>
<g><path style="opacity:1" fill="#eeefed" d="M 728.5,1144.5 C 728.844,1149.12 728.177,1153.46 726.5,1157.5C 713.833,1157.5 701.167,1157.5 688.5,1157.5C 688.5,1152.17 688.5,1146.83 688.5,1141.5C 701.833,1141.5 715.167,1141.5 728.5,1141.5C 728.5,1142.5 728.5,1143.5 728.5,1144.5 Z"/></g>
<g><path style="opacity:1" fill="#c7c9c8" d="M 631.5,1142.5 C 644.656,1141.5 657.99,1141.17 671.5,1141.5C 671.5,1146.83 671.5,1152.17 671.5,1157.5C 660.167,1157.5 648.833,1157.5 637.5,1157.5C 648.321,1156.51 659.321,1156.17 670.5,1156.5C 670.5,1151.83 670.5,1147.17 670.5,1142.5C 657.5,1142.5 644.5,1142.5 631.5,1142.5 Z"/></g>
<g><path style="opacity:1" fill="#7d7f7e" d="M 631.5,1143.5 C 632.486,1147.97 632.819,1152.64 632.5,1157.5C 634.167,1157.5 635.833,1157.5 637.5,1157.5C 648.833,1157.5 660.167,1157.5 671.5,1157.5C 658.344,1158.5 645.01,1158.83 631.5,1158.5C 631.5,1153.5 631.5,1148.5 631.5,1143.5 Z"/></g>
<g><path style="opacity:1" fill="#646461" d="M 615.5,1096.5 C 615.5,1096.83 615.5,1097.17 615.5,1097.5C 615.5,1122.5 615.5,1147.5 615.5,1172.5C 619.167,1172.5 622.833,1172.5 626.5,1172.5C 662.167,1172.5 697.833,1172.5 733.5,1172.5C 733.158,1173.34 732.492,1173.67 731.5,1173.5C 692.833,1173.5 654.167,1173.5 615.5,1173.5C 614.167,1147.83 614.167,1122.17 615.5,1096.5 Z"/></g>
<g><path style="opacity:1" fill="#f3f3f2" d="M 615.5,1173.5 C 654.167,1173.5 692.833,1173.5 731.5,1173.5C 731.953,1174.46 732.619,1175.29 733.5,1176C 730.289,1176.73 728.289,1178.57 727.5,1181.5C 726.325,1181.28 725.325,1181.61 724.5,1182.5C 725.641,1183.43 725.641,1184.26 724.5,1185C 725.448,1185.48 726.448,1185.65 727.5,1185.5C 727.5,1186.83 727.5,1188.17 727.5,1189.5C 726.325,1189.28 725.325,1189.61 724.5,1190.5C 735.659,1191.17 746.659,1191.83 757.5,1192.5C 706.167,1192.5 654.833,1192.5 603.5,1192.5C 602.167,1192.5 600.833,1192.5 599.5,1192.5C 612.014,1191.73 624.681,1190.9 637.5,1190C 636.672,1189.09 635.672,1188.42 634.5,1188C 636.167,1187.67 637.833,1187.33 639.5,1187C 637.122,1186.03 637.456,1185.36 640.5,1185C 639.256,1182.7 637.589,1182.2 635.5,1183.5C 634.239,1181.55 633.073,1179.55 632,1177.5C 630.12,1178.93 628.62,1178.6 627.5,1176.5C 629.695,1175.23 631.861,1175.23 634,1176.5C 665.428,1175.67 696.928,1175.17 728.5,1175C 690.664,1174.83 652.998,1174.33 615.5,1173.5 Z"/></g>
<g><path style="opacity:1" fill="#050604" d="M 829.5,1174.5 C 834.833,1174.5 840.167,1174.5 845.5,1174.5C 845.175,1181.69 845.509,1188.69 846.5,1195.5C 872.995,1196.5 899.661,1196.83 926.5,1196.5C 926.5,1232.5 926.5,1268.5 926.5,1304.5C 925.187,1321.26 916.521,1332.43 900.5,1338C 894.829,1340.95 888.829,1342.78 882.5,1343.5C 881.833,1339.83 881.167,1336.17 880.5,1332.5C 880.5,1331.17 880.5,1329.83 880.5,1328.5C 881.791,1328.74 882.791,1328.4 883.5,1327.5C 890.459,1324.85 897.125,1321.35 903.5,1317C 907.463,1312.57 909.963,1307.41 911,1301.5C 911.831,1271.33 911.664,1241.33 910.5,1211.5C 899.839,1210.83 889.005,1210.5 878,1210.5C 866.812,1210.5 855.979,1211.17 845.5,1212.5C 846.788,1245.35 839.288,1276.01 823,1304.5C 811.645,1321.36 797.478,1335.36 780.5,1346.5C 775.794,1342.67 772.628,1338 771,1332.5C 812.699,1302.76 832.199,1262.09 829.5,1210.5C 813.167,1210.5 796.833,1210.5 780.5,1210.5C 780.5,1205.83 780.5,1201.17 780.5,1196.5C 797.009,1196.83 813.342,1196.5 829.5,1195.5C 829.5,1188.5 829.5,1181.5 829.5,1174.5 Z"/></g>
<g><path style="opacity:1" fill="#7f7f7e" d="M 829.5,1174.5 C 834.64,1173.51 839.974,1173.18 845.5,1173.5C 846.492,1180.65 846.825,1187.98 846.5,1195.5C 845.509,1188.69 845.175,1181.69 845.5,1174.5C 840.167,1174.5 834.833,1174.5 829.5,1174.5 Z"/></g>
<g><path style="opacity:1" fill="#44443f" d="M 603.5,1192.5 C 654.833,1192.5 706.167,1192.5 757.5,1192.5C 757.5,1192.83 757.5,1193.17 757.5,1193.5C 705.998,1194.88 654.665,1194.54 603.5,1192.5 Z"/></g>
<g><path style="opacity:1" fill="#c9cac5" d="M 845.5,1173.5 C 839.974,1173.18 834.64,1173.51 829.5,1174.5C 829.5,1181.5 829.5,1188.5 829.5,1195.5C 812.833,1195.5 796.167,1195.5 779.5,1195.5C 795.658,1194.5 811.991,1194.17 828.5,1194.5C 828.5,1187.17 828.5,1179.83 828.5,1172.5C 834.358,1172.18 840.025,1172.51 845.5,1173.5 Z"/></g>
<g><path style="opacity:1" fill="#0f100e" d="M 599.5,1192.5 C 600.833,1192.5 602.167,1192.5 603.5,1192.5C 654.665,1194.54 705.998,1194.88 757.5,1193.5C 757.5,1198.83 757.5,1204.17 757.5,1209.5C 731.167,1209.5 704.833,1209.5 678.5,1209.5C 678.5,1254.17 678.5,1298.83 678.5,1343.5C 672.974,1343.82 667.64,1343.49 662.5,1342.5C 667.5,1342.5 672.5,1342.5 677.5,1342.5C 677.5,1298.17 677.5,1253.83 677.5,1209.5C 676.448,1209.65 675.448,1209.48 674.5,1209C 675.643,1205.3 674.81,1204.8 672,1207.5C 671.692,1206.69 671.192,1206.03 670.5,1205.5C 669.167,1206.83 667.833,1206.83 666.5,1205.5C 664.517,1205.81 663.184,1206.81 662.5,1208.5C 653.167,1208.5 643.833,1208.5 634.5,1208.5C 623.167,1208.5 611.833,1208.5 600.5,1208.5C 600.737,1207.21 600.404,1206.21 599.5,1205.5C 599.5,1201.17 599.5,1196.83 599.5,1192.5 Z"/></g>
<g><path style="opacity:1" fill="#262824" d="M 779.5,1195.5 C 796.167,1195.5 812.833,1195.5 829.5,1195.5C 813.342,1196.5 797.009,1196.83 780.5,1196.5C 780.5,1201.17 780.5,1205.83 780.5,1210.5C 779.513,1205.69 779.179,1200.69 779.5,1195.5 Z"/></g>
<g><path style="opacity:1" fill="#020302" d="M 662.5,1342.5 C 662.5,1297.83 662.5,1253.17 662.5,1208.5C 663.184,1206.81 664.517,1205.81 666.5,1205.5C 667.833,1206.83 669.167,1206.83 670.5,1205.5C 671.192,1206.03 671.692,1206.69 672,1207.5C 674.81,1204.8 675.643,1205.3 674.5,1209C 675.448,1209.48 676.448,1209.65 677.5,1209.5C 677.5,1253.83 677.5,1298.17 677.5,1342.5C 672.5,1342.5 667.5,1342.5 662.5,1342.5 Z"/></g>
<g><path style="opacity:1" fill="#656763" d="M 599.5,1205.5 C 600.404,1206.21 600.737,1207.21 600.5,1208.5C 611.833,1208.5 623.167,1208.5 634.5,1208.5C 634.5,1208.83 634.5,1209.17 634.5,1209.5C 622.833,1209.5 611.167,1209.5 599.5,1209.5C 599.5,1208.17 599.5,1206.83 599.5,1205.5 Z"/></g>
<g><path style="opacity:1" fill="#6d706c" d="M 910.5,1211.5 C 888.758,1211.18 867.091,1211.51 845.5,1212.5C 855.979,1211.17 866.812,1210.5 878,1210.5C 889.005,1210.5 899.839,1210.83 910.5,1211.5 Z"/></g>
<g><path style="opacity:1" fill="#7f8180" d="M 634.5,1209.5 C 634.5,1209.17 634.5,1208.83 634.5,1208.5C 643.833,1208.5 653.167,1208.5 662.5,1208.5C 662.5,1253.17 662.5,1297.83 662.5,1342.5C 661.501,1298.34 661.168,1254 661.5,1209.5C 652.5,1209.5 643.5,1209.5 634.5,1209.5 Z"/></g>
<g><path style="opacity:1" fill="#2d2d2c" d="M 846.5,1195.5 C 873.5,1195.5 900.5,1195.5 927.5,1195.5C 927.832,1232 927.498,1268.34 926.5,1304.5C 926.5,1268.5 926.5,1232.5 926.5,1196.5C 899.661,1196.83 872.995,1196.5 846.5,1195.5 Z"/></g>
<g><path style="opacity:1" fill="#0b0c0b" d="M 688.5,1239.5 C 695.659,1242.07 702.659,1245.24 709.5,1249C 724.008,1257.19 737.675,1266.52 750.5,1277C 746.984,1280.52 743.817,1284.36 741,1288.5C 740.282,1289.45 739.449,1289.62 738.5,1289C 721.039,1274.76 702.373,1262.26 682.5,1251.5C 681.417,1250.64 681.251,1249.64 682,1248.5C 684.676,1245.79 686.842,1242.79 688.5,1239.5 Z"/></g>
<g><path style="opacity:1" fill="#767874" d="M 883.5,1327.5 C 882.791,1328.4 881.791,1328.74 880.5,1328.5C 880.5,1329.83 880.5,1331.17 880.5,1332.5C 879.549,1331.08 879.216,1329.41 879.5,1327.5C 880.833,1327.5 882.167,1327.5 883.5,1327.5 Z"/></g>
<g><path style="opacity:1" fill="#060705" d="M 710.5,1376.5 C 722.322,1377.5 734.322,1377.83 746.5,1377.5C 746.187,1381.04 746.521,1384.38 747.5,1387.5C 747.3,1420.84 747.8,1454.18 749,1487.5C 754.196,1495.44 761.529,1500.1 771,1501.5C 771.499,1506.49 771.666,1511.49 771.5,1516.5C 753.863,1516.34 741.363,1508.34 734,1492.5C 732.862,1459.04 732.028,1425.71 731.5,1392.5C 724.352,1391.51 717.019,1391.18 709.5,1391.5C 709.5,1399.17 709.5,1406.83 709.5,1414.5C 710.007,1445.13 704.173,1474.47 692,1502.5C 689.233,1508.26 686.066,1513.76 682.5,1519C 681.167,1519.67 679.833,1519.67 678.5,1519C 675.938,1516.59 672.938,1514.92 669.5,1514C 668.978,1513.44 668.645,1512.77 668.5,1512C 678.187,1494.81 685.187,1476.64 689.5,1457.5C 690.924,1455.49 691.59,1453.15 691.5,1450.5C 692.825,1441.89 693.492,1433.22 693.5,1424.5C 694.495,1413.68 694.828,1402.68 694.5,1391.5C 689.167,1391.5 683.833,1391.5 678.5,1391.5C 678.5,1386.83 678.5,1382.17 678.5,1377.5C 684.167,1377.5 689.833,1377.5 695.5,1377.5C 695.5,1369.17 695.5,1360.83 695.5,1352.5C 700.167,1352.5 704.833,1352.5 709.5,1352.5C 709.174,1360.68 709.508,1368.68 710.5,1376.5 Z"/></g>
<g><path style="opacity:1" fill="#070806" d="M 808.5,1352.5 C 813.167,1352.5 817.833,1352.5 822.5,1352.5C 822.179,1358.03 822.512,1363.36 823.5,1368.5C 828.64,1369.49 833.974,1369.82 839.5,1369.5C 839.5,1370.83 839.5,1372.17 839.5,1373.5C 839.5,1376.5 839.5,1379.5 839.5,1382.5C 834.167,1383.17 828.833,1383.83 823.5,1384.5C 823.5,1391.17 823.5,1397.83 823.5,1404.5C 824.791,1404.74 825.791,1404.4 826.5,1403.5C 830.801,1397.52 835.135,1391.52 839.5,1385.5C 840.401,1384.71 841.068,1383.71 841.5,1382.5C 844.367,1375.23 847.034,1367.9 849.5,1360.5C 854.695,1360.91 859.695,1361.91 864.5,1363.5C 859.942,1377.29 854.275,1390.62 847.5,1403.5C 852.305,1404.49 857.305,1404.82 862.5,1404.5C 862.5,1408.83 862.5,1413.17 862.5,1417.5C 860.585,1417.22 858.919,1417.55 857.5,1418.5C 848.808,1418.17 840.141,1418.5 831.5,1419.5C 827.813,1422.86 824.147,1426.19 820.5,1429.5C 819.527,1429.99 818.527,1430.49 817.5,1431C 830.496,1431.5 843.496,1431.67 856.5,1431.5C 856.179,1437.03 856.512,1442.36 857.5,1447.5C 857.667,1465.17 857.5,1482.84 857,1500.5C 855.489,1506.36 851.989,1510.53 846.5,1513C 832.5,1513.33 818.5,1513.67 804.5,1514C 804.043,1514.41 803.709,1514.91 803.5,1515.5C 799.555,1516.49 795.555,1516.82 791.5,1516.5C 790.5,1516.5 789.5,1516.5 788.5,1516.5C 788.83,1497.99 788.497,1479.66 787.5,1461.5C 787.784,1458.22 787.451,1455.06 786.5,1452C 783.246,1452.7 780.246,1454.2 777.5,1456.5C 774.197,1452.72 771.53,1448.56 769.5,1444C 782.666,1436.31 795.666,1428.48 808.5,1420.5C 809.404,1419.79 809.737,1418.79 809.5,1417.5C 797.833,1417.5 786.167,1417.5 774.5,1417.5C 774.81,1414.29 774.477,1411.29 773.5,1408.5C 773.5,1407.17 773.5,1405.83 773.5,1404.5C 785.167,1404.5 796.833,1404.5 808.5,1404.5C 808.5,1397.83 808.5,1391.17 808.5,1384.5C 800.167,1384.5 791.833,1384.5 783.5,1384.5C 782.527,1382.05 782.194,1379.39 782.5,1376.5C 782.5,1373.83 782.5,1371.17 782.5,1368.5C 791.167,1368.5 799.833,1368.5 808.5,1368.5C 808.5,1363.17 808.5,1357.83 808.5,1352.5 Z"/></g>
<g><path style="opacity:1" fill="#0a0a08" d="M 637.5,1352.5 C 638.209,1353.4 639.209,1353.74 640.5,1353.5C 640.5,1355.5 640.5,1357.5 640.5,1359.5C 639.57,1363.4 639.237,1367.4 639.5,1371.5C 649.653,1372.49 659.986,1372.83 670.5,1372.5C 670.263,1373.79 670.596,1374.79 671.5,1375.5C 671.5,1379.5 671.5,1383.5 671.5,1387.5C 659.495,1387.33 647.495,1387.5 635.5,1388C 632.604,1400.33 629.27,1412.5 625.5,1424.5C 624.957,1424.56 624.624,1424.89 624.5,1425.5C 629.456,1426.49 634.456,1426.83 639.5,1426.5C 639.5,1420.17 639.5,1413.83 639.5,1407.5C 639.194,1404.61 639.527,1401.95 640.5,1399.5C 644.833,1399.5 649.167,1399.5 653.5,1399.5C 653.173,1408.68 653.507,1417.68 654.5,1426.5C 660.31,1427.49 666.31,1427.82 672.5,1427.5C 672.5,1432.17 672.5,1436.83 672.5,1441.5C 666.31,1441.18 660.31,1441.51 654.5,1442.5C 654.177,1449.02 654.51,1455.36 655.5,1461.5C 656.167,1461.5 656.833,1461.5 657.5,1461.5C 660.152,1461.59 662.485,1460.92 664.5,1459.5C 668.315,1457.7 672.315,1456.37 676.5,1455.5C 677.053,1460.48 677.387,1465.48 677.5,1470.5C 669.829,1472.67 662.329,1475.33 655,1478.5C 654.5,1491.83 654.333,1505.16 654.5,1518.5C 649.5,1518.5 644.5,1518.5 639.5,1518.5C 639.5,1506.5 639.5,1494.5 639.5,1482.5C 632.536,1482.91 625.87,1484.25 619.5,1486.5C 615.521,1486.74 611.854,1487.74 608.5,1489.5C 606.54,1490.14 604.707,1490.14 603,1489.5C 601.62,1484.55 600.453,1479.55 599.5,1474.5C 612.825,1471.5 626.158,1468.5 639.5,1465.5C 639.5,1457.83 639.5,1450.17 639.5,1442.5C 629.167,1442.5 618.833,1442.5 608.5,1442.5C 608.439,1428.01 611.106,1414.01 616.5,1400.5C 617.924,1398.49 618.59,1396.15 618.5,1393.5C 619.219,1391.24 619.552,1388.9 619.5,1386.5C 614.167,1386.5 608.833,1386.5 603.5,1386.5C 603.5,1381.83 603.5,1377.17 603.5,1372.5C 609.358,1372.82 615.025,1372.49 620.5,1371.5C 621.5,1371.5 622.5,1371.5 623.5,1371.5C 624.176,1365.11 625.176,1358.78 626.5,1352.5C 630.167,1352.5 633.833,1352.5 637.5,1352.5 Z"/></g>
<g><path style="opacity:1" fill="#929290" d="M 637.5,1352.5 C 638.833,1352.5 640.167,1352.5 641.5,1352.5C 641.802,1355.06 641.468,1357.39 640.5,1359.5C 640.5,1357.5 640.5,1355.5 640.5,1353.5C 639.209,1353.74 638.209,1353.4 637.5,1352.5 Z"/></g>
<g><path style="opacity:1" fill="#050605" d="M 933.5,1358.5 C 932.904,1364.93 931.737,1371.27 930,1377.5C 925.987,1388.26 921.987,1398.93 918,1409.5C 917.304,1412.48 916.804,1415.48 916.5,1418.5C 921.167,1418.5 925.833,1418.5 930.5,1418.5C 930.667,1433.5 930.5,1448.5 930,1463.5C 929.094,1472.81 924.927,1480.31 917.5,1486C 911.188,1490.14 904.521,1493.64 897.5,1496.5C 896.914,1496.29 896.414,1495.96 896,1495.5C 895.501,1489.84 895.334,1484.18 895.5,1478.5C 907.168,1477 913.668,1470.33 915,1458.5C 915.5,1449.17 915.666,1439.84 915.5,1430.5C 909.69,1429.51 903.69,1429.18 897.5,1429.5C 897.5,1428.5 897.5,1427.5 897.5,1426.5C 902.685,1408.75 908.018,1391.09 913.5,1373.5C 904.014,1372.51 894.348,1372.17 884.5,1372.5C 884.5,1420.83 884.5,1469.17 884.5,1517.5C 879.167,1517.5 873.833,1517.5 868.5,1517.5C 868.5,1516.5 868.5,1515.5 868.5,1514.5C 869.499,1462.67 869.832,1410.67 869.5,1358.5C 890.833,1358.5 912.167,1358.5 933.5,1358.5 Z"/></g>
<g><path style="opacity:1" fill="#3c3c3a" d="M 808.5,1352.5 C 808.5,1352.17 808.5,1351.83 808.5,1351.5C 813.5,1351.5 818.5,1351.5 823.5,1351.5C 823.5,1357.17 823.5,1362.83 823.5,1368.5C 822.512,1363.36 822.179,1358.03 822.5,1352.5C 817.833,1352.5 813.167,1352.5 808.5,1352.5 Z"/></g>
<g><path style="opacity:1" fill="#bebebc" d="M 808.5,1351.5 C 808.5,1351.83 808.5,1352.17 808.5,1352.5C 808.5,1357.83 808.5,1363.17 808.5,1368.5C 799.833,1368.5 791.167,1368.5 782.5,1368.5C 782.5,1371.17 782.5,1373.83 782.5,1376.5C 781.523,1373.71 781.19,1370.71 781.5,1367.5C 790.167,1367.5 798.833,1367.5 807.5,1367.5C 807.179,1361.97 807.512,1356.64 808.5,1351.5 Z"/></g>
<g><path style="opacity:1" fill="#666866" d="M 823.5,1368.5 C 829.167,1368.5 834.833,1368.5 840.5,1368.5C 840.784,1370.41 840.451,1372.08 839.5,1373.5C 839.5,1372.17 839.5,1370.83 839.5,1369.5C 833.974,1369.82 828.64,1369.49 823.5,1368.5 Z"/></g>
<g><path style="opacity:1" fill="#2a2c28" d="M 639.5,1371.5 C 650.167,1371.5 660.833,1371.5 671.5,1371.5C 671.5,1372.83 671.5,1374.17 671.5,1375.5C 670.596,1374.79 670.263,1373.79 670.5,1372.5C 659.986,1372.83 649.653,1372.49 639.5,1371.5 Z"/></g>
<g><path style="opacity:1" fill="#686a66" d="M 620.5,1371.5 C 615.025,1372.49 609.358,1372.82 603.5,1372.5C 603.5,1377.17 603.5,1381.83 603.5,1386.5C 602.513,1381.69 602.179,1376.69 602.5,1371.5C 608.5,1371.5 614.5,1371.5 620.5,1371.5 Z"/></g>
<g><path style="opacity:1" fill="#4e4f4c" d="M 710.5,1376.5 C 709.508,1368.68 709.174,1360.68 709.5,1352.5C 704.833,1352.5 700.167,1352.5 695.5,1352.5C 695.5,1360.83 695.5,1369.17 695.5,1377.5C 689.833,1377.5 684.167,1377.5 678.5,1377.5C 678.5,1382.17 678.5,1386.83 678.5,1391.5C 677.513,1386.69 677.179,1381.69 677.5,1376.5C 683.167,1376.5 688.833,1376.5 694.5,1376.5C 694.5,1367.83 694.5,1359.17 694.5,1350.5C 699.833,1350.5 705.167,1350.5 710.5,1350.5C 710.5,1359.17 710.5,1367.83 710.5,1376.5 Z"/></g>
<g><path style="opacity:1" fill="#4e4f4c" d="M 710.5,1376.5 C 722.833,1376.5 735.167,1376.5 747.5,1376.5C 747.5,1380.17 747.5,1383.83 747.5,1387.5C 746.521,1384.38 746.187,1381.04 746.5,1377.5C 734.322,1377.83 722.322,1377.5 710.5,1376.5 Z"/></g>
<g><path style="opacity:1" fill="#595d59" d="M 839.5,1382.5 C 840.167,1382.5 840.833,1382.5 841.5,1382.5C 841.068,1383.71 840.401,1384.71 839.5,1385.5C 834.695,1384.51 829.695,1384.18 824.5,1384.5C 824.167,1384.5 823.833,1384.5 823.5,1384.5C 828.833,1383.83 834.167,1383.17 839.5,1382.5 Z"/></g>
<g><path style="opacity:1" fill="#f6f6f4" d="M 824.5,1384.5 C 829.695,1384.18 834.695,1384.51 839.5,1385.5C 835.135,1391.52 830.801,1397.52 826.5,1403.5C 824.544,1397.59 823.877,1391.25 824.5,1384.5 Z"/></g>
<g><path style="opacity:1" fill="#b6b7b4" d="M 823.5,1384.5 C 823.833,1384.5 824.167,1384.5 824.5,1384.5C 823.877,1391.25 824.544,1397.59 826.5,1403.5C 825.791,1404.4 824.791,1404.74 823.5,1404.5C 823.5,1397.83 823.5,1391.17 823.5,1384.5 Z"/></g>
<g><path style="opacity:1" fill="#545552" d="M 618.5,1393.5 C 618.59,1396.15 617.924,1398.49 616.5,1400.5C 616.41,1397.85 617.076,1395.51 618.5,1393.5 Z"/></g>
<g><path style="opacity:1" fill="#a3a3a2" d="M 678.5,1391.5 C 683.833,1391.5 689.167,1391.5 694.5,1391.5C 694.828,1402.68 694.495,1413.68 693.5,1424.5C 693.5,1413.83 693.5,1403.17 693.5,1392.5C 688.305,1392.82 683.305,1392.49 678.5,1391.5 Z"/></g>
<g><path style="opacity:1" fill="#a3a5a3" d="M 731.5,1392.5 C 724.5,1392.5 717.5,1392.5 710.5,1392.5C 710.825,1400.02 710.492,1407.35 709.5,1414.5C 709.5,1406.83 709.5,1399.17 709.5,1391.5C 717.019,1391.18 724.352,1391.51 731.5,1392.5 Z"/></g>
<g><path style="opacity:1" fill="#c7c7c4" d="M 783.5,1384.5 C 791.833,1384.5 800.167,1384.5 808.5,1384.5C 808.5,1391.17 808.5,1397.83 808.5,1404.5C 796.833,1404.5 785.167,1404.5 773.5,1404.5C 784.451,1402.52 795.784,1401.86 807.5,1402.5C 807.5,1396.83 807.5,1391.17 807.5,1385.5C 799.316,1385.83 791.316,1385.49 783.5,1384.5 Z"/></g>
<g><path style="opacity:1" fill="#575654" d="M 847.5,1403.5 C 852.833,1403.5 858.167,1403.5 863.5,1403.5C 864.108,1408.94 863.442,1413.94 861.5,1418.5C 860.167,1418.5 858.833,1418.5 857.5,1418.5C 858.919,1417.55 860.585,1417.22 862.5,1417.5C 862.5,1413.17 862.5,1408.83 862.5,1404.5C 857.305,1404.82 852.305,1404.49 847.5,1403.5 Z"/></g>
<g><path style="opacity:1" fill="#585956" d="M 640.5,1399.5 C 644.97,1398.51 649.637,1398.18 654.5,1398.5C 654.5,1407.83 654.5,1417.17 654.5,1426.5C 653.507,1417.68 653.173,1408.68 653.5,1399.5C 649.167,1399.5 644.833,1399.5 640.5,1399.5 Z"/></g>
<g><path style="opacity:1" fill="#585b58" d="M 773.5,1408.5 C 774.477,1411.29 774.81,1414.29 774.5,1417.5C 786.167,1417.5 797.833,1417.5 809.5,1417.5C 809.737,1418.79 809.404,1419.79 808.5,1420.5C 797.215,1418.52 785.548,1417.85 773.5,1418.5C 773.5,1415.17 773.5,1411.83 773.5,1408.5 Z"/></g>
<g><path style="opacity:1" fill="#bfc0bc" d="M 639.5,1407.5 C 639.5,1413.83 639.5,1420.17 639.5,1426.5C 634.456,1426.83 629.456,1426.49 624.5,1425.5C 624.624,1424.89 624.957,1424.56 625.5,1424.5C 629.634,1425.48 633.968,1425.82 638.5,1425.5C 638.177,1419.31 638.51,1413.31 639.5,1407.5 Z"/></g>
<g><path style="opacity:1" fill="#646562" d="M 654.5,1426.5 C 660.833,1426.5 667.167,1426.5 673.5,1426.5C 673.821,1432.03 673.488,1437.36 672.5,1442.5C 666.5,1442.5 660.5,1442.5 654.5,1442.5C 660.31,1441.51 666.31,1441.18 672.5,1441.5C 672.5,1436.83 672.5,1432.17 672.5,1427.5C 666.31,1427.82 660.31,1427.49 654.5,1426.5 Z"/></g>
<g><path style="opacity:1" fill="#e4e5e1" d="M 857.5,1418.5 C 858.833,1418.5 860.167,1418.5 861.5,1418.5C 852.936,1419.09 844.269,1419.92 835.5,1421C 835.833,1421.33 836.167,1421.67 836.5,1422C 833.629,1422.12 830.962,1422.78 828.5,1424C 829.126,1424.75 829.626,1425.58 830,1426.5C 830.333,1426.17 830.667,1425.83 831,1425.5C 831.483,1426.45 831.649,1427.45 831.5,1428.5C 840.338,1428.88 849.005,1429.54 857.5,1430.5C 844.989,1430.83 832.655,1430.5 820.5,1429.5C 824.147,1426.19 827.813,1422.86 831.5,1419.5C 840.141,1418.5 848.808,1418.17 857.5,1418.5 Z"/></g>
<g><path style="opacity:1" fill="#858683" d="M 897.5,1426.5 C 897.5,1427.5 897.5,1428.5 897.5,1429.5C 903.69,1429.18 909.69,1429.51 915.5,1430.5C 909.167,1430.5 902.833,1430.5 896.5,1430.5C 896.232,1428.9 896.566,1427.57 897.5,1426.5 Z"/></g>
<g><path style="opacity:1" fill="#4d4e4a" d="M 820.5,1429.5 C 832.655,1430.5 844.989,1430.83 857.5,1430.5C 857.5,1436.17 857.5,1441.83 857.5,1447.5C 856.512,1442.36 856.179,1437.03 856.5,1431.5C 843.496,1431.67 830.496,1431.5 817.5,1431C 818.527,1430.49 819.527,1429.99 820.5,1429.5 Z"/></g>
<g><path style="opacity:1" fill="#4a4a49" d="M 933.5,1358.5 C 912.167,1358.5 890.833,1358.5 869.5,1358.5C 869.832,1410.67 869.499,1462.67 868.5,1514.5C 868.5,1462.17 868.5,1409.83 868.5,1357.5C 890.34,1357.17 912.006,1357.5 933.5,1358.5 Z"/></g>
<g><path style="opacity:1" fill="#f5f5f2" d="M 840.5,1445.5 C 840.5,1450.83 840.5,1456.17 840.5,1461.5C 828.167,1461.5 815.833,1461.5 803.5,1461.5C 803.5,1455.83 803.5,1450.17 803.5,1444.5C 816.011,1444.17 828.345,1444.5 840.5,1445.5 Z"/></g>
<g><path style="opacity:1" fill="#949592" d="M 691.5,1450.5 C 691.59,1453.15 690.924,1455.49 689.5,1457.5C 689.41,1454.85 690.076,1452.51 691.5,1450.5 Z"/></g>
<g><path style="opacity:1" fill="#8c8e89" d="M 840.5,1445.5 C 841.489,1450.98 841.822,1456.64 841.5,1462.5C 828.656,1462.83 815.989,1462.5 803.5,1461.5C 815.833,1461.5 828.167,1461.5 840.5,1461.5C 840.5,1456.17 840.5,1450.83 840.5,1445.5 Z"/></g>
<g><path style="opacity:1" fill="#c2c4bf" d="M 654.5,1442.5 C 660.5,1442.5 666.5,1442.5 672.5,1442.5C 667.025,1443.49 661.358,1443.82 655.5,1443.5C 655.5,1449.5 655.5,1455.5 655.5,1461.5C 654.51,1455.36 654.177,1449.02 654.5,1442.5 Z"/></g>
<g><path style="opacity:1" fill="#595955" d="M 664.5,1459.5 C 662.485,1460.92 660.152,1461.59 657.5,1461.5C 659.515,1460.08 661.848,1459.41 664.5,1459.5 Z"/></g>
<g><path style="opacity:1" fill="#7f7f7e" d="M 913.5,1373.5 C 904.167,1373.5 894.833,1373.5 885.5,1373.5C 885.832,1421.67 885.499,1469.67 884.5,1517.5C 884.5,1469.17 884.5,1420.83 884.5,1372.5C 894.348,1372.17 904.014,1372.51 913.5,1373.5 Z"/></g>
<g><path style="opacity:1" fill="#f9f9f7" d="M 819.5,1477.5 C 826.5,1477.5 833.5,1477.5 840.5,1477.5C 840.812,1484.42 840.479,1491.26 839.5,1498C 827.838,1498.5 816.171,1498.67 804.5,1498.5C 804.5,1491.83 804.5,1485.17 804.5,1478.5C 809.695,1478.82 814.695,1478.49 819.5,1477.5 Z"/></g>
<g><path style="opacity:1" fill="#9ea09e" d="M 819.5,1477.5 C 814.695,1478.49 809.695,1478.82 804.5,1478.5C 804.5,1485.17 804.5,1491.83 804.5,1498.5C 803.509,1491.69 803.175,1484.69 803.5,1477.5C 808.833,1477.5 814.167,1477.5 819.5,1477.5 Z"/></g>
<g><path style="opacity:1" fill="#2d2f2c" d="M 787.5,1461.5 C 788.497,1479.66 788.83,1497.99 788.5,1516.5C 789.5,1516.5 790.5,1516.5 791.5,1516.5C 790.432,1517.43 789.099,1517.77 787.5,1517.5C 787.5,1498.83 787.5,1480.17 787.5,1461.5 Z"/></g>
<g><path style="opacity:1" fill="#bfc0bc" d="M 619.5,1486.5 C 618.848,1487.73 617.681,1488.39 616,1488.5C 613.502,1488.92 611.002,1489.25 608.5,1489.5C 611.854,1487.74 615.521,1486.74 619.5,1486.5 Z"/></g>
<g><path style="opacity:1" fill="#646662" d="M 706.5,1526.5 C 704.469,1526.97 702.802,1527.97 701.5,1529.5C 700.596,1528.79 700.263,1527.79 700.5,1526.5C 702.5,1526.5 704.5,1526.5 706.5,1526.5 Z"/></g>
<g><path style="opacity:1" fill="#090908" d="M 722.5,1543.5 C 737.658,1544.5 752.991,1544.83 768.5,1544.5C 768.5,1549.5 768.5,1554.5 768.5,1559.5C 757.5,1559.5 746.5,1559.5 735.5,1559.5C 735.5,1585.83 735.5,1612.17 735.5,1638.5C 734.739,1647.36 731.239,1655.03 725,1661.5C 722.5,1664 720,1666.5 717.5,1669C 715.788,1670.75 713.788,1671.42 711.5,1671C 708.931,1667.27 706.598,1663.44 704.5,1659.5C 708.094,1655.4 711.927,1651.4 716,1647.5C 718.315,1644.22 719.649,1640.56 720,1636.5C 720.5,1610.84 720.667,1585.17 720.5,1559.5C 714.833,1559.5 709.167,1559.5 703.5,1559.5C 705.235,1581.25 704.568,1602.92 701.5,1624.5C 699.723,1627.5 698.723,1630.84 698.5,1634.5C 694.069,1646.69 687.569,1657.69 679,1667.5C 678.517,1668.45 678.351,1669.45 678.5,1670.5C 677.448,1670.65 676.448,1670.48 675.5,1670C 672.1,1666.6 668.767,1663.27 665.5,1660C 674.539,1648.43 681.372,1635.59 686,1621.5C 686.573,1617.15 687.24,1612.82 688,1608.5C 688.5,1592.17 688.667,1575.84 688.5,1559.5C 678.681,1558.51 668.681,1558.17 658.5,1558.5C 658.768,1556.9 658.434,1555.57 657.5,1554.5C 657.5,1552.5 657.5,1550.5 657.5,1548.5C 657.5,1547.17 657.5,1545.83 657.5,1544.5C 673.342,1544.83 689.009,1544.5 704.5,1543.5C 703.519,1538.86 702.519,1534.19 701.5,1529.5C 702.802,1527.97 704.469,1526.97 706.5,1526.5C 709.763,1525.86 712.929,1525.86 716,1526.5C 718.075,1532.23 720.242,1537.9 722.5,1543.5 Z"/></g>
<g><path style="opacity:1" fill="#0c0d0c" d="M 619.5,1529.5 C 629.646,1535.79 639.146,1543.12 648,1551.5C 648.667,1552.5 648.667,1553.5 648,1554.5C 645.333,1557.83 642.667,1561.17 640,1564.5C 631.572,1556.74 622.572,1549.74 613,1543.5C 614.844,1538.8 617.011,1534.14 619.5,1529.5 Z"/></g>
<g><path style="opacity:1" fill="#838483" d="M 704.5,1543.5 C 689.009,1544.5 673.342,1544.83 657.5,1544.5C 657.5,1545.83 657.5,1547.17 657.5,1548.5C 656.549,1547.08 656.216,1545.41 656.5,1543.5C 672.5,1543.5 688.5,1543.5 704.5,1543.5 Z"/></g>
<g><path style="opacity:1" fill="#42443f" d="M 657.5,1554.5 C 658.434,1555.57 658.768,1556.9 658.5,1558.5C 668.681,1558.17 678.681,1558.51 688.5,1559.5C 678.167,1559.5 667.833,1559.5 657.5,1559.5C 657.5,1557.83 657.5,1556.17 657.5,1554.5 Z"/></g>
<g><path style="opacity:1" fill="#757774" d="M 748.5,1574.5 C 749.449,1573.85 750.615,1573.51 752,1573.5C 753.681,1573.61 754.848,1574.27 755.5,1575.5C 753.283,1574.63 750.95,1574.3 748.5,1574.5 Z"/></g>
<g><path style="opacity:1" fill="#0d0d0b" d="M 642.5,1573.5 C 643.332,1601 643.832,1628.66 644,1656.5C 649.166,1661.85 654.999,1666.18 661.5,1669.5C 663.684,1671.58 666.351,1672.58 669.5,1672.5C 670.808,1673.23 672.142,1674.07 673.5,1675C 719.165,1675.5 764.832,1675.67 810.5,1675.5C 810.5,1681.17 810.5,1686.83 810.5,1692.5C 766.165,1692.67 721.832,1692.5 677.5,1692C 675.942,1691.79 674.609,1691.29 673.5,1690.5C 671.485,1689.08 669.152,1688.41 666.5,1688.5C 655.847,1684.76 646.347,1679.09 638,1671.5C 629.605,1677.89 621.772,1685.05 614.5,1693C 613.5,1693.67 612.5,1693.67 611.5,1693C 608.623,1688.75 605.623,1684.58 602.5,1680.5C 611.583,1672.62 620.25,1664.29 628.5,1655.5C 629.498,1632.67 629.831,1609.67 629.5,1586.5C 621.5,1586.5 613.5,1586.5 605.5,1586.5C 605.5,1582.17 605.5,1577.83 605.5,1573.5C 617.833,1573.5 630.167,1573.5 642.5,1573.5 Z"/></g>
<g><path style="opacity:1" fill="#8c8d8c" d="M 722.5,1543.5 C 738.167,1543.5 753.833,1543.5 769.5,1543.5C 769.5,1549.17 769.5,1554.83 769.5,1560.5C 758.5,1560.5 747.5,1560.5 736.5,1560.5C 736.831,1586.67 736.498,1612.67 735.5,1638.5C 735.5,1612.17 735.5,1585.83 735.5,1559.5C 746.5,1559.5 757.5,1559.5 768.5,1559.5C 768.5,1554.5 768.5,1549.5 768.5,1544.5C 752.991,1544.83 737.658,1544.5 722.5,1543.5 Z"/></g>
<g><path style="opacity:1" fill="#636662" d="M 748.5,1574.5 C 746.485,1575.92 744.152,1576.59 741.5,1576.5C 743.515,1575.08 745.848,1574.41 748.5,1574.5 Z"/></g>
<g><path style="opacity:1" fill="#080908" d="M 748.5,1574.5 C 750.95,1574.3 753.283,1574.63 755.5,1575.5C 760.348,1594.74 764.681,1614.07 768.5,1633.5C 766.928,1634.69 765.261,1635.69 763.5,1636.5C 760.455,1636.51 757.455,1636.84 754.5,1637.5C 750.014,1617.22 745.68,1596.89 741.5,1576.5C 744.152,1576.59 746.485,1575.92 748.5,1574.5 Z"/></g>
<g><path style="opacity:1" fill="#0b0c0b" d="M 681.5,1580.5 C 680.028,1584.92 679.362,1589.59 679.5,1594.5C 677.63,1603.63 674.963,1612.63 671.5,1621.5C 669.935,1623.51 668.935,1625.84 668.5,1628.5C 667.199,1631.02 666.199,1633.69 665.5,1636.5C 664.167,1636.17 662.833,1635.83 661.5,1635.5C 658.975,1633.82 656.309,1632.32 653.5,1631C 652.941,1630.28 652.608,1629.44 652.5,1628.5C 655.958,1620.99 658.958,1613.33 661.5,1605.5C 662.924,1603.49 663.59,1601.15 663.5,1598.5C 664.783,1590.75 666.45,1583.09 668.5,1575.5C 672.783,1574.51 677.116,1574.17 681.5,1574.5C 681.5,1576.5 681.5,1578.5 681.5,1580.5 Z"/></g>
<g><path style="opacity:1" fill="#535351" d="M 642.5,1573.5 C 630.167,1573.5 617.833,1573.5 605.5,1573.5C 605.5,1577.83 605.5,1582.17 605.5,1586.5C 613.5,1586.5 621.5,1586.5 629.5,1586.5C 629.831,1609.67 629.498,1632.67 628.5,1655.5C 628.5,1632.83 628.5,1610.17 628.5,1587.5C 620.5,1587.5 612.5,1587.5 604.5,1587.5C 604.5,1582.5 604.5,1577.5 604.5,1572.5C 617.344,1572.17 630.011,1572.5 642.5,1573.5 Z"/></g>
<g><path style="opacity:1" fill="#b9b9b9" d="M 681.5,1580.5 C 681.638,1585.41 680.972,1590.08 679.5,1594.5C 679.362,1589.59 680.028,1584.92 681.5,1580.5 Z"/></g>
<g><path style="opacity:1" fill="#4c4c4b" d="M 663.5,1598.5 C 663.59,1601.15 662.924,1603.49 661.5,1605.5C 661.41,1602.85 662.076,1600.51 663.5,1598.5 Z"/></g>
<g><path style="opacity:1" fill="#a8aaa7" d="M 671.5,1621.5 C 671.834,1624.49 670.834,1626.82 668.5,1628.5C 668.935,1625.84 669.935,1623.51 671.5,1621.5 Z"/></g>
<g><path style="opacity:1" fill="#999998" d="M 701.5,1624.5 C 701.277,1628.16 700.277,1631.5 698.5,1634.5C 698.723,1630.84 699.723,1627.5 701.5,1624.5 Z"/></g>
<g><path style="opacity:1" fill="#a0a19f" d="M 768.5,1633.5 C 769.774,1634.19 769.774,1635.02 768.5,1636C 766.866,1636.49 765.199,1636.66 763.5,1636.5C 765.261,1635.69 766.928,1634.69 768.5,1633.5 Z"/></g>
<g><path style="opacity:1" fill="#787b78" d="M 661.5,1635.5 C 662.833,1635.83 664.167,1636.17 665.5,1636.5C 663.872,1637.85 662.538,1637.52 661.5,1635.5 Z"/></g>
<g><path style="opacity:1" fill="#9f9e99" d="M 661.5,1669.5 C 664.649,1669.42 667.316,1670.42 669.5,1672.5C 666.351,1672.58 663.684,1671.58 661.5,1669.5 Z"/></g>
<g><path style="opacity:1" fill="#61625e" d="M 666.5,1688.5 C 669.152,1688.41 671.485,1689.08 673.5,1690.5C 670.848,1690.59 668.515,1689.92 666.5,1688.5 Z"/></g>
<g><path style="opacity:1" fill="#fafbf8" d="M 127.5,2192.5 C 129.164,2193.95 129.998,2195.95 130,2198.5C 132.24,2195.83 133.74,2196.33 134.5,2200C 135.448,2200.48 136.448,2200.65 137.5,2200.5C 137.64,2198.88 136.973,2197.71 135.5,2197C 138.063,2195.92 140.729,2195.42 143.5,2195.5C 143.5,2197.17 143.5,2198.83 143.5,2200.5C 148.629,2200.72 148.629,2201.39 143.5,2202.5C 143.5,2204.5 143.5,2206.5 143.5,2208.5C 144.833,2208.5 146.167,2208.5 147.5,2208.5C 147.193,2214.09 147.527,2219.59 148.5,2225C 147.667,2227.17 146.167,2228.67 144,2229.5C 143.192,2235.85 142.359,2242.19 141.5,2248.5C 146.249,2249.5 147.249,2252 144.5,2256C 143.207,2256.49 141.873,2256.66 140.5,2256.5C 140.5,2259.17 140.5,2261.83 140.5,2264.5C 139.325,2264.28 138.325,2264.61 137.5,2265.5C 139.171,2267.51 139.838,2269.84 139.5,2272.5C 140.978,2272.24 142.311,2272.57 143.5,2273.5C 142.349,2274.73 141.183,2274.73 140,2273.5C 138.211,2275.23 136.044,2275.9 133.5,2275.5C 133.192,2278.71 134.359,2279.71 137,2278.5C 138.879,2280.01 141.046,2280.68 143.5,2280.5C 143.5,2282.5 143.5,2284.5 143.5,2286.5C 132.833,2287.17 132.833,2287.83 143.5,2288.5C 143.5,2290.17 143.5,2291.83 143.5,2293.5C 140.091,2293.25 136.758,2293.58 133.5,2294.5C 129.611,2293.19 125.611,2292.52 121.5,2292.5C 121.5,2293.83 121.5,2295.17 121.5,2296.5C 123.5,2296.5 125.5,2296.5 127.5,2296.5C 127.5,2299.5 127.5,2302.5 127.5,2305.5C 124.833,2306.17 122.167,2306.83 119.5,2307.5C 119.227,2309.45 119.893,2310.95 121.5,2312C 119.527,2312.5 117.527,2312.66 115.5,2312.5C 115.503,2316.52 115.836,2320.52 116.5,2324.5C 116.167,2325.83 115.833,2327.17 115.5,2328.5C 114.52,2325.91 114.187,2323.25 114.5,2320.5C 113.5,2320.5 112.5,2320.5 111.5,2320.5C 111.328,2322.49 111.995,2324.16 113.5,2325.5C 109.673,2328.74 109.673,2332.08 113.5,2335.5C 112.311,2336.43 110.978,2336.76 109.5,2336.5C 109.172,2341.87 109.505,2347.21 110.5,2352.5C 111.333,2344.79 112.833,2344.79 115,2352.5C 116.064,2348.71 118.564,2347.54 122.5,2349C 123.33,2350.75 124.33,2352.41 125.5,2354C 125.22,2355.4 124.553,2356.56 123.5,2357.5C 122.316,2355.95 121.316,2354.29 120.5,2352.5C 119.516,2355.43 119.183,2358.43 119.5,2361.5C 118.448,2361.35 117.448,2361.52 116.5,2362C 119.961,2363.05 122.627,2365.05 124.5,2368C 129.672,2369.56 131.005,2368.39 128.5,2364.5C 129.04,2363.25 129.707,2362.09 130.5,2361C 132.657,2360.92 134.657,2360.76 136.5,2360.5C 136.833,2361.83 137.167,2363.17 137.5,2364.5C 136.809,2367.2 136.142,2369.87 135.5,2372.5C 138.167,2372.5 140.833,2372.5 143.5,2372.5C 143.5,2373.5 143.5,2374.5 143.5,2375.5C 146.518,2375.34 149.518,2375.5 152.5,2376C 151.577,2378.04 151.244,2380.21 151.5,2382.5C 148.753,2382.19 146.086,2382.52 143.5,2383.5C 141.047,2386.24 138.714,2389.07 136.5,2392C 137.5,2392.33 138.5,2392.67 139.5,2393C 138.692,2394.71 137.359,2395.54 135.5,2395.5C 135.5,2394.5 135.5,2393.5 135.5,2392.5C 134.448,2392.65 133.448,2392.48 132.5,2392C 129.6,2387.07 125.267,2385.24 119.5,2386.5C 119.649,2387.55 119.483,2388.55 119,2389.5C 117.26,2388.28 116.26,2386.62 116,2384.5C 115.667,2386.17 115.333,2387.83 115,2389.5C 113.989,2390.34 112.822,2390.67 111.5,2390.5C 111.447,2393.14 110.78,2395.64 109.5,2398C 111.338,2401.25 113.004,2404.59 114.5,2408C 113.225,2410.07 111.391,2411.57 109,2412.5C 108.51,2413.79 108.343,2415.13 108.5,2416.5C 106.326,2416.08 104.326,2416.08 102.5,2416.5C 101.217,2413.63 101.217,2410.79 102.5,2408C 99.9342,2406.37 100.101,2404.87 103,2403.5C 103.667,2401.83 103.667,2400.17 103,2398.5C 99.5269,2401.16 95.6936,2401.83 91.5,2400.5C 89.5,2401.17 87.5,2401.83 85.5,2402.5C 84.8333,2402.17 84.1667,2401.83 83.5,2401.5C 84.7485,2398.51 84.7485,2395.51 83.5,2392.5C 82.6816,2395.11 82.1816,2397.77 82,2400.5C 79.9771,2398.23 79.1437,2395.56 79.5,2392.5C 76.3389,2391.53 73.5056,2389.86 71,2387.5C 69.1476,2385.77 69.3143,2384.6 71.5,2384C 68.8428,2383.83 66.1761,2383.99 63.5,2384.5C 63.5,2383.5 63.5,2382.5 63.5,2381.5C 60.8333,2380.83 58.1667,2380.17 55.5,2379.5C 56.3123,2377.26 56.9789,2374.92 57.5,2372.5C 57.1667,2371.17 56.8333,2369.83 56.5,2368.5C 55.6922,2370.42 55.1922,2372.42 55,2374.5C 53.335,2366.46 53.6684,2358.46 56,2350.5C 57.892,2349.87 59.5587,2348.87 61,2347.5C 67.1005,2339.32 70.9339,2330.32 72.5,2320.5C 74.2279,2318.77 76.2279,2317.44 78.5,2316.5C 82.416,2317.34 86.2494,2317.67 90,2317.5C 90.4935,2315.87 90.6602,2314.2 90.5,2312.5C 89.325,2312.72 88.325,2312.39 87.5,2311.5C 90.0865,2310.52 92.7531,2310.19 95.5,2310.5C 94.5149,2305.89 93.8482,2301.22 93.5,2296.5C 94.552,2296.65 95.552,2296.48 96.5,2296C 92.3556,2290.03 86.689,2286.03 79.5,2284C 83.6454,2282.04 86.4787,2278.87 88,2274.5C 89.6625,2276.16 90.4959,2278.16 90.5,2280.5C 92.8568,2280.66 95.1902,2280.5 97.5,2280C 96.1667,2279 96.1667,2278 97.5,2277C 95.9826,2275.22 95.1492,2275.72 95,2278.5C 93.3375,2276.84 92.5041,2274.84 92.5,2272.5C 95.5,2272.5 98.5,2272.5 101.5,2272.5C 101.187,2269.75 101.52,2267.09 102.5,2264.5C 103.167,2266.17 103.833,2267.83 104.5,2269.5C 106.689,2264.69 108.689,2259.69 110.5,2254.5C 111.328,2250.2 111.828,2245.87 112,2241.5C 113.314,2240.69 114.481,2239.69 115.5,2238.5C 116.148,2240.15 117.148,2241.48 118.5,2242.5C 119.192,2241.97 119.692,2241.31 120,2240.5C 121.011,2241.34 122.178,2241.67 123.5,2241.5C 123.286,2239.86 123.62,2238.36 124.5,2237C 126.5,2236.67 128.5,2236.33 130.5,2236C 131.022,2235.44 131.355,2234.77 131.5,2234C 129.024,2229.09 127.857,2223.92 128,2218.5C 130.299,2220.8 131.799,2220.13 132.5,2216.5C 132,2214.5 131.5,2212.5 131,2210.5C 130.259,2209.36 129.425,2209.36 128.5,2210.5C 127.702,2208.92 127.202,2207.26 127,2205.5C 126.517,2206.45 126.351,2207.45 126.5,2208.5C 125.5,2208.5 124.5,2208.5 123.5,2208.5C 122.959,2205.35 123.959,2202.85 126.5,2201C 126.043,2200.59 125.709,2200.09 125.5,2199.5C 127.173,2197.48 127.84,2195.14 127.5,2192.5 Z"/></g>
</svg>
